<?xml version="1.0" encoding="UTF-8"?>
<svg id="Capa_2" data-name="Capa 2" xmlns="http://www.w3.org/2000/svg" viewBox="0 0 718.65 269.73">
  <defs>
    <style>
      .cls-1 {
        fill: #098387;
        stroke-width: 0px;
      }
    </style>
  </defs>
  <g id="Capa_1-2" data-name="Capa 1">
    <path class="cls-1" d="M7.25,227.68c3.77,8.9,8.79,16.58,14.97,23.05,6.18,6.46,13.46,11.37,21.71,14.83,8.28,3.43,17.38,4.73,27.3,3.97,8.93-.77,17.04-2.07,24.32-4,7.26-1.93,13.86-4.31,19.81-7.06,5.95-2.78,11.34-5.87,16.16-9.3,4.79-3.43,9.21-6.97,13.24-10.66,4.03-3.66,7.77-7.37,11.17-11.06,3.43-3.71,6.75-7.2,9.95-10.54.51-.51.99-1.02,1.47-1.53l.23-.11c.74,1.67,1.53,3.26,2.32,4.79,3,5.78,6.35,10.29,10.06,13.58s7.54,4.73,11.48,4.42c2.52-.23,5.16-.77,7.97-1.73,2.81-.91,5.67-2.1,8.59-3.57,2.92-1.42,5.78-3,8.62-4.76,2.83-1.81,5.58-3.57,8.25-5.36,1.73-1.22,3.49-2.47,5.22-3.77l.31.4c3.29,4.39,7.34,7.85,12.16,10.35s10.46,3.49,16.92,2.98c4.48-.37,8.65-1.5,12.47-3.4,3.86-1.87,7.34-4.28,10.46-7.26,3.12-2.95,5.84-6.35,8.14-10.23,2.3-3.86,4.2-7.97,5.67-12.27,1.47-4.34,2.47-8.76,3.09-13.32.57-4.56.71-9.01.34-13.46-.34-4.39-1.25-8.96-2.72-13.66-1.45-4.73-3.37-9.21-5.87-13.35l.77-1.33c2.81,1.59,6.15,3.54,10.01,5.92,3.91,2.32,7.85,4.88,11.88,7.54,4,2.66,7.82,5.44,11.45,8.31l.2.17c.82,6.09,1.9,11.76,3.15,17.04,2.15,9.1,4.93,16.72,8.31,22.96s7.31,10.89,11.85,13.97c4.54,3.09,9.61,4.42,15.17,3.97,2.69-.23,5.7-.99,8.96-2.3s6.92-3.17,11.03-5.61c4.14-2.44,8.82-5.44,14.09-9.01,4.05-2.78,8.59-5.92,13.55-9.41.23,2.21.51,4.39.85,6.55.43,2.98,1.13,5.61,2.07,7.88.91,2.32,2.15,4.11,3.66,5.41,1.5,1.3,3.46,1.87,5.87,1.67,1.84-.14,3.32-.68,4.42-1.59,1.11-.94,2.1-2.18,2.98-3.88.82-1.67,1.67-3.83,2.49-6.43.79-2.58,1.93-5.64,3.26-9.13,2.64-7.03,5.75-13.92,9.21-20.64,3.49-6.69,6.89-12.76,10.2-18.17,3.34-5.41,6.35-9.89,9.04-13.49s4.68-5.87,5.84-6.77l2.32.11c-.2.26-.6,1.13-1.22,2.61-.6,1.47-1.33,3.37-2.15,5.67-.79,2.35-1.64,4.96-2.58,7.91-.91,2.92-1.67,5.9-2.38,8.96-.68,3.06-1.22,6.09-1.59,9.1-.4,3-.48,5.7-.28,8.08.28,3.6,1.08,7.37,2.35,11.31,1.28,4,3,7.57,5.19,10.83,2.18,3.26,4.85,5.84,7.99,7.82,3.15,1.93,6.72,2.78,10.77,2.44,2.64-.23,5.36-.91,8.19-2.01,2.81-1.16,5.61-2.49,8.39-4.14,2.81-1.62,5.53-3.4,8.25-5.44,2.75-2.01,5.24-4,7.57-5.95,2.1-1.81,4.08-3.54,5.87-5.16,1.25,1.81,2.64,3.51,4.14,5.1,3.8,4.05,8.39,7.11,13.75,9.21,5.39,2.13,11.54,2.92,18.4,2.35,4.39-.34,8.7-1.19,12.9-2.58,4.22-1.33,8.25-3,12.1-5.02,3.88-2.01,7.54-4.22,11-6.69,3.46-2.47,6.66-4.9,9.64-7.43.85-.71,1.7-1.47,2.55-2.21.77,3.43,2.01,6.32,3.77,8.7,1.98,2.69,4.48,4.79,7.43,6.32,2.95,1.53,6.38,2.55,10.15,3.06,3.83.54,7.88.6,12.19.26,6.07-.48,12.36-1.67,18.96-3.6,6.58-1.9,13.07-4.31,19.45-7.26,6.38-2.89,12.16-6.66,18.14-9.81,26.67-14.09,16.3-32.26-3.46-24.92-3.71,1.39-3.4,2.27-6.58,4.11-3.17,1.81-3.09,1.76-6.01,3.49s-5.64,3.54-8.14,5.56c-.4-4.79-.88-8.9-1.5-12.39-.62-3.49-1.33-6.55-2.07-9.18-.77-2.66-1.53-4.99-2.3-6.97-.74-2.04-1.45-3.94-2.15-5.73s-1.28-3.57-1.76-5.47c-.48-1.9-.79-4-.99-6.32.17-.82.88-2.15,2.3-3.97,1.39-1.79,2.81-3.77,4.34-5.92,1.53-2.15,2.89-4.34,4.11-6.63,1.19-2.3,1.76-4.31,1.62-6.09-.09-.94-.23-1.98-.48-3.2-.23-1.22-.85-2.35-1.81-3.4-.99-1.02-2.47-1.87-4.45-2.52-1.96-.62-4.73-.82-8.22-.54-2.13.17-4.03.65-5.7,1.42-1.67.79-3.2,1.73-4.54,2.86-1.33,1.11-2.55,2.35-3.63,3.71-1.05,1.36-2.04,2.78-2.86,4.2-4.22,6.35-7.65,11.62-10.26,15.87-2.61,4.22-4.82,7.82-6.66,10.74s-3.43,5.47-4.76,7.57c-1.33,2.15-2.86,4.28-4.51,6.41-1.7,2.15-3.74,4.51-6.09,7.11-.51.57-1.08,1.19-1.67,1.81l-.68-.62c-2.64,3.06-5.9,6.35-9.72,9.86-3.86,3.51-7.99,6.77-12.39,9.86-4.39,3.06-8.96,5.7-13.69,7.88-4.73,2.15-9.33,3.46-13.72,3.8-1.39.11-2.72.06-3.94-.14-1.22-.2-2.41-.6-3.57-1.28-1.13-.62-2.32-1.62-3.51-2.86-1.16-1.25-2.38-2.86-3.63-4.79,6.24-2.32,11.96-5.27,17.15-8.93,5.22-3.63,9.61-7.68,13.27-12.1,3.6-4.45,6.38-9.04,8.22-13.86,1.87-4.79,2.58-9.52,2.21-14.14-.37-4.28-1.39-8.05-3.12-11.37-1.76-3.32-4-6.07-6.83-8.31-2.78-2.21-6.01-3.88-9.61-4.93-3.63-1.05-7.54-1.45-11.62-1.11-5.07.4-9.58,1.67-13.61,3.86-3.97,2.18-7.54,4.93-10.63,8.33-3.06,3.37-5.7,7.17-7.85,11.45-2.21,4.25-3.91,8.7-5.22,13.32-1.3,4.62-2.15,9.3-2.58,14.03-.45,4.73-.48,9.21-.14,13.38.11,1.47.28,2.95.51,4.39-.57.62-1.11,1.25-1.67,1.87-1.56,1.79-3.23,3.54-5.02,5.22-1.79,1.7-3.6,3.23-5.5,4.56s-3.8,2.49-5.7,3.37c-1.93.91-3.8,1.42-5.56,1.56-1.39.11-2.58-.68-3.63-2.41-1.02-1.7-1.67-4.05-1.9-7.03-.43-5.47-.17-10.74.77-15.87.96-5.1,2.07-10.12,3.34-15.08,1.25-4.96,2.38-9.89,3.37-14.83.99-4.93,1.3-9.92.91-15-.2-2.52-.71-4.59-1.5-6.15-.77-1.56-1.7-2.69-2.75-3.54-1.11-.79-2.21-1.33-3.32-1.59s-2.15-.31-3-.26c-3.51.28-7.17,1.87-10.94,4.88-3.8,2.95-7.57,6.6-11.25,10.91-3.71,4.37-7.26,8.99-10.63,13.92-3.34,4.9-6.38,9.5-9.04,13.8l-2.35-1.39c2.13-4.9,4.54-10.6,7.31-17.06s5.56-13.32,8.36-20.58c2.81-7.29,5.53-14.74,8.16-22.45,2.64-7.68,4.93-15.25,6.86-22.68,1.93-7.48,3.37-14.6,4.42-21.46,1.02-6.83,1.28-13.01.82-18.57-.28-3.71-.88-7.09-1.67-10.06-.82-2.98-2.1-5.5-3.77-7.51-1.7-2.07-3.86-3.57-6.46-4.56-2.61-.99-5.92-1.33-9.86-1.02-7.63.62-14.23,3.34-19.73,8.14-5.56,4.82-10.18,11.08-13.95,18.77-3.77,7.74-6.8,16.53-9.07,26.45-2.27,9.92-3.97,20.3-5.13,31.1-.88,8.28-1.5,16.58-1.84,24.94-.23-1.64-.65-3-1.3-4.11-.77-1.39-1.9-2.04-3.37-2.01-1.25,0-2.83.06-4.76.14-1.93.09-3.97.2-6.18.31-2.18.11-4.48.17-6.86.26-2.32.06-4.51.17-6.55.26-2.01.09-3.83.2-5.36.28-1.53.09-2.64.11-3.32.09,2.32-4.45,4.48-8.93,6.52-13.49,2.01-4.54,3.77-8.99,5.16-13.32,1.42-4.37,2.47-8.62,3.2-12.76.68-4.17.88-8.08.6-11.74-.34-4.34-1.16-8.48-2.49-12.36-1.3-3.94-3.03-7.31-5.1-10.15-2.04-2.83-4.45-5.07-7.23-6.66-2.72-1.59-5.7-2.24-8.84-1.98-4.93.4-9.44,3-13.55,7.8-4.11,4.85-7.77,11.06-10.94,18.71-3.2,7.68-5.95,16.33-8.22,26.02-2.27,9.69-4,19.7-5.19,29.91-.71.2-2.04.4-3.97.51-1.96.11-4.2.23-6.63.34-2.49.17-5.05.34-7.71.6-2.69.26-5.13.65-7.34,1.22-2.18.57-3.97,1.3-5.33,2.21-1.36.88-1.98,2.07-1.87,3.57.06.65.17,1.45.31,2.41.14.91.48,1.81.96,2.61.54.85,1.3,1.53,2.3,2.1.99.54,2.38.88,4.17.94,4.03.14,7.06.28,9.18.43s3.88.26,5.24.43c1.36.17,2.66.28,3.88.45,1.25.17,2.98.28,5.19.43-.23,5.07-.34,10.18-.31,15.28.06,3.09.14,6.07.28,8.93-.94-.85-1.87-1.7-2.83-2.55-4.99-4.42-10.23-8.25-15.87-11.54-5.61-3.23-11.54-5.73-17.83-7.46-6.26-1.73-12.9-2.32-19.84-1.76-8.14.65-15.34,2.78-21.63,6.32-6.29,3.57-11.48,8.16-15.56,13.78-4.08,5.64-7.03,12.13-8.9,19.47-1.84,7.29-2.41,15.08-1.76,23.3.26,3.17.71,6.32,1.33,9.41-.65.51-1.28,1.05-1.93,1.56-1.87,1.5-3.8,3-5.84,4.48-2.04,1.45-4,2.78-5.95,3.97-1.93,1.13-3.77,2.1-5.53,2.86-1.76.74-3.32,1.16-4.71,1.28-.6.03-1.28-.34-1.98-1.16-.74-.79-1.45-1.87-2.15-3.29-.71-1.42-1.33-3-1.9-4.82-.51-1.81-.88-3.66-1.05-5.61l-.11-1.56c.11-1.5.28-3.06.54-4.65.26-1.62.48-3.12.74-4.54.26-1.42.54-2.75.85-3.97.31-1.22.62-2.24.94-3,2.81-7,5.9-14.2,9.16-21.57,3.29-7.34,6.55-14.85,9.75-22.42,3.26-7.6,6.35-15.25,9.24-22.9,2.95-7.68,5.47-15.31,7.54-22.9,2.07-7.54,3.63-15.02,4.62-22.45.99-7.4,1.19-14.63.62-21.66-.23-3.12-.74-6.15-1.45-9.18-.74-2.98-1.79-5.58-3.15-7.91-1.33-2.27-3.12-4.11-5.3-5.39-2.18-1.3-4.85-1.81-7.99-1.56-4.62.37-9.04,2.13-13.29,5.33-4.22,3.2-8.25,7.46-11.93,12.73-3.69,5.3-7.14,11.48-10.37,18.43-3.17,6.97-6.09,14.46-8.67,22.39-2.55,7.97-4.79,16.24-6.63,24.77-1.84,8.59-3.34,17.09-4.51,25.54-1.19,8.39-1.93,16.58-2.27,24.46-.31,7.88-.23,15.14.31,21.8.43,5.56,1.16,10.94,2.18,16.16-3.74,2.92-7.43,5.92-11.08,8.99-5.33,4.54-10.69,9.04-16.07,13.52-5.36,4.51-10.94,8.56-16.78,12.27s-11.99,6.83-18.57,9.35c-6.58,2.55-13.75,4.08-21.51,4.71-6.24.48-11.91.03-17.06-1.45-5.16-1.45-9.58-3.94-13.35-7.46-3.77-3.54-6.8-8.11-9.13-13.66-2.35-5.56-3.83-12.22-4.45-19.9-.43-5.33-.37-11.28.17-17.74.57-6.46,1.53-13.21,2.98-20.13,1.45-6.97,3.29-13.97,5.56-21.03,2.27-7.06,4.93-13.89,7.91-20.49,3-6.6,6.38-12.81,10.09-18.68,3.69-5.84,7.71-10.97,11.99-15.39,4.31-4.37,8.84-7.97,13.69-10.71,4.85-2.75,9.89-4.37,15.19-4.79,4.45-.34,8.31.03,11.54,1.16,3.23,1.16,5.95,2.78,8.08,4.9,2.18,2.13,3.83,4.65,4.96,7.6,1.13,2.95,1.84,6.12,2.1,9.44.51,6.35-.26,12.27-2.27,17.74-2.04,5.47-4.85,10.23-8.36,14.37-3.54,4.14-7.63,7.46-12.27,9.89-4.62,2.49-9.27,3.91-13.97,4.28-1.76.14-3.23.14-4.39-.03-1.16-.17-2.15-.37-3-.6-.79-.23-1.59-.43-2.24-.65-.68-.23-1.45-.28-2.35-.2-1.47.11-2.61.6-3.37,1.39-.79.82-1.36,1.84-1.67,3.06-.37,1.28-.57,2.58-.6,4.05-.03,1.5,0,2.89.11,4.22.09.94.17,1.76.28,2.61.09.79.14,1.53.2,2.1.26,3.43,2.13,5.95,5.58,7.51,3.46,1.59,8.5,2.1,15.17,1.56,5.07-.43,10.06-1.81,14.97-4.14,4.9-2.35,9.55-5.39,13.97-9.1s8.5-7.99,12.19-12.87c3.71-4.9,6.86-10.06,9.44-15.48,2.58-5.44,4.51-11.08,5.78-16.84,1.28-5.78,1.7-11.45,1.25-16.95-.68-8.22-2.64-15.28-5.87-21.09-3.23-5.84-7.17-10.54-11.85-14.14-4.62-3.63-9.75-6.15-15.31-7.63-5.58-1.45-11-1.98-16.3-1.56-8.14.68-15.87,2.64-23.22,5.92-7.34,3.32-14.2,7.6-20.66,12.9-6.43,5.3-12.42,11.4-17.91,18.23-5.5,6.86-10.46,14.29-14.88,22.14s-8.28,16.02-11.59,24.49c-3.29,8.48-5.98,16.92-8.11,25.29-2.07,8.42-3.54,16.61-4.37,24.6-.82,7.99-.99,15.42-.43,22.31.82,10.09,3.15,19.56,6.92,28.46ZM628.89,166.7l-.28-.26-.03.03,19.13-22.82c.45,1.16.99,2.58,1.62,4.22.62,1.64,1.19,3.4,1.76,5.24.6,1.87,1.08,3.83,1.47,5.92.43,2.07.74,4.14.91,6.12.17,2.32.14,4.56-.14,6.75-.28,2.13-.88,4.05-1.84,5.75-1.02,1.7-2.35,3.12-4.17,4.22-1.79,1.13-4.11,1.79-6.97,2.01-2.35.17-4.48-.2-6.41-1.19-1.93-.96-3.63-2.07-5.13-3.29-1.5-1.25-2.83-2.38-3.97-3.4-1.02-.91-1.96-1.42-2.78-1.45,2.35-2.52,4.62-5.16,6.83-7.88ZM545.35,143.4c.28-2.49.79-4.99,1.5-7.51.71-2.49,1.76-4.76,3.12-6.8,1.33-1.98,3.09-3.71,5.22-5.07,2.15-1.36,4.79-2.18,7.94-2.44,1.76-.14,3.34.82,4.73,2.89,1.36,2.1,2.18,4.79,2.47,8.16.17,2.35-.51,4.93-2.15,7.6-1.62,2.72-3.69,5.24-6.18,7.63-2.49,2.35-5.24,4.39-8.25,6.01-3,1.62-5.84,2.55-8.48,2.75-.11-1.64-.2-3.66-.28-5.95-.03-2.32.11-4.73.37-7.26ZM431.42,112.42c.17-3.83.45-7.88.82-12.19.34-4.25.77-8.59,1.25-13.07.51-4.42,1.11-8.9,1.84-13.38.71-4.48,1.53-8.82,2.44-13.04,4.08-12.5,7.74-22.05,10.94-28.71,3.23-6.66,5.78-10.06,7.71-10.2,1.45-.11,2.44,2.64,2.89,8.31.31,3.74-.2,9.61-1.53,17.6-1.33,8.02-3.66,17.89-7.06,29.68h.03c-1.08,3.46-2.41,7.68-4.05,12.67-1.64,4.99-3.37,10.26-5.19,15.85-1.84,5.61-3.69,11.28-5.61,17.01-1.9,5.67-3.66,10.97-5.27,15.85,0-8.59.23-17.35.79-26.36ZM402.43,120.1c1.76-.14,3.32-1.08,4.65-2.83.58-.8,1.04-1.67,1.33-2.64,0-.06,0-.13,0-.19h.06c-.02.07-.04.13-.06.19-.03.87-.05,1.74-.08,2.61-.2,11.03-.2,21.46,0,31.38.14,8.08.43,15.53.82,22.39-.91.99-1.84,1.98-2.81,2.98-2.52,2.55-5.19,5.02-7.99,7.37-2.78,2.38-5.64,4.56-8.53,6.6-2.89,2.04-5.67,3.83-8.33,5.36-2.64,1.53-5.07,2.78-7.34,3.69-2.21.96-4.11,1.5-5.64,1.62-2.52.2-4.79-.06-6.89-.65-2.04-.62-3.88-1.76-5.41-3.4-1.53-1.64-2.78-3.83-3.74-6.52-.94-2.69-1.59-6.07-1.9-10.09-.11-1.56-.26-3.29-.37-5.16-.11-1.87-.2-3.83-.28-5.87-.09-1.98-.17-4.05-.26-6.09-.09-2.07-.17-4.05-.28-6.01-.14-4.51-.23-9.07-.31-13.72,1.64-2.47,3.43-5.24,5.39-8.28,1.93-3.06,3.83-6.18,5.73-9.33l42.26-3.4ZM348.82,84.9c1.08-6.55,2.3-12.59,3.66-18.09,1.33-5.47,2.86-10.01,4.54-13.61,1.67-3.6,3.43-5.5,5.36-5.64,1.39-.11,2.52.11,3.32.65.82.51,1.45,1.22,1.9,2.07.4.88.74,1.81.94,2.81s.31,1.9.37,2.75v.06c.2,2.38-.2,5.47-1.13,9.33-.94,3.83-2.21,7.97-3.77,12.42-1.56,4.45-3.34,8.96-5.36,13.63-2.04,4.62-4,8.93-5.87,12.9-1.19-.03-2.35-.09-3.46-.11-1.11-.03-2.24-.06-3.34-.11.85-6.15,1.81-12.5,2.86-19.05ZM244.59,174.9c.79-5.02,2.04-9.67,3.77-13.89,1.7-4.25,3.83-7.8,6.32-10.6,2.49-2.83,5.24-4.37,8.28-4.62,2.27-.17,4.25.31,5.98,1.45,1.73,1.13,3.17,2.75,4.37,4.85,1.22,2.04,2.18,4.56,2.95,7.46.74,2.89,1.25,6.09,1.53,9.52.34,4.34.2,8.93-.48,13.75-.71,4.85-1.76,9.27-3.2,13.35-1.47,4.03-3.26,7.46-5.39,10.2-2.15,2.81-4.48,4.25-6.94,4.45-2.89.23-5.39-.2-7.54-1.25-2.13-1.05-3.91-2.58-5.36-4.54-1.39-1.93-2.49-4.25-3.32-7-.79-2.69-1.33-5.61-1.59-8.76-.37-4.56-.17-9.35.62-14.37ZM183.82,126.34c.43-7.68,1.22-15.19,2.41-22.48,1.13-7.34,2.64-14.23,4.34-20.75,1.76-6.55,3.63-12.3,5.73-17.29,2.04-4.99,4.22-8.99,6.43-11.96,2.27-3,4.45-4.59,6.55-4.76.62-.06,1.02.68,1.25,2.21.23,1.5.43,3.34.6,5.53-.09,6.86-1.02,14.32-2.83,22.39-1.79,8.05-4,16.16-6.66,24.35-2.66,8.19-5.53,16.19-8.65,23.95-3.12,7.77-6.07,14.77-8.9,21v.03c-.6-7.14-.65-14.57-.26-22.22Z"/>
  </g>
</svg>