<?xml version="1.0" encoding="UTF-8"?>
<svg id="Capa_2" data-name="Capa 2" xmlns="http://www.w3.org/2000/svg" viewBox="0 0 788.49 257.85">
  <defs>
    <style>
      .cls-1 {
        fill: #098387;
        stroke-width: 0px;
      }
    </style>
  </defs>
  <g id="Capa_1-2" data-name="Capa 1">
    <path class="cls-1" d="M770.05,140.31c-3.57,3.83-3.74,3.15-8.16,6.21-4.39,3.06-8.96,5.7-13.69,7.88-4.73,2.15-9.33,3.43-13.72,3.8-1.39.11-2.72.06-3.94-.14-1.22-.2-2.41-.6-3.57-1.28-1.13-.62-2.32-1.62-3.52-2.86-1.16-1.25-2.38-2.86-3.63-4.79,6.24-2.32,11.96-5.27,17.15-8.93,5.22-3.63,9.61-7.68,13.27-12.1,3.6-4.45,6.38-9.04,8.22-13.86,1.87-4.79,2.58-9.52,2.21-14.14-.37-4.28-1.39-8.05-3.12-11.37s-4-6.07-6.83-8.31c-2.78-2.21-6.01-3.88-9.61-4.93-3.63-1.05-7.54-1.45-11.62-1.11-5.07.4-9.58,1.67-13.61,3.86-3.97,2.18-7.54,4.93-10.63,8.33-3.06,3.37-5.7,7.17-7.85,11.45-2.21,4.28-3.91,8.7-5.22,13.32s-2.15,9.3-2.58,14.03c-.45,4.73-.48,9.21-.14,13.38l.03.51c-2.07,1.33-4.22,2.55-6.52,3.71-2.78,1.39-5.3,2.18-7.51,2.35-3,.26-5.47.03-7.46-.62-1.96-.71-3.57-1.7-4.76-2.98-1.22-1.3-2.1-2.78-2.69-4.45-.6-1.67-.94-3.43-1.08-5.22-.14-1.7-.17-3.37-.03-4.99.14-1.62.31-3.09.6-4.39.28-1.45.57-2.86.99-4.28,1.33-3.77,2.55-7.06,3.71-9.89,1.13-2.78,2.1-5.33,2.89-7.63.85-2.27,1.42-4.34,1.84-6.26.37-1.9.51-3.91.34-5.98-.23-2.78-1.7-4.93-4.42-6.49-2.69-1.56-6.18-2.15-10.43-1.81-1.62.11-3.15.48-4.54,1.05-1.39.57-2.64,1.25-3.77,2.04-1.11.82-1.98,1.73-2.66,2.75-.65,1.05-1.05,2.1-1.19,3.17l-23.3,72.54-1.53.23-1.39-71.23c-.23-1.96-1.08-3.6-2.55-4.99-1.5-1.39-3.49-1.98-5.95-1.79-.37.03-.71.11-1.05.17s-.68.11-1.05.23l-13.01,3.2c-2.35.57-3.66,3.03-4.03,7.37-.37,4.34-.23,10.37.4,18.06.26,3,.51,5.92.82,8.76.31,2.83.68,5.92,1.13,9.27.45,3.34.99,7.09,1.5,11.2.45,3.29.94,7.03,1.45,11.23l-.37.37c-2.92,3.09-5.92,6.12-9.01,9.01-3.12,2.92-6.18,5.44-9.27,7.57-3.09,2.13-5.92,3.29-8.56,3.49-2.27.2-3.86-.65-4.73-2.58-.94-1.93-1.5-4.56-1.79-7.94-.28-3.4-.2-7.34.2-11.68.37-4.37.96-8.82,1.67-13.46.71-4.62,1.53-9.21,2.44-13.83.88-4.59,1.7-8.93,2.47-12.93.79-4.03,1.42-7.6,1.93-10.74.45-3.17.65-5.58.51-7.23-.14-1.93-.82-3.46-2.01-4.51-1.16-1.05-3.32-1.5-6.41-1.25-1.67.14-3.54.51-5.61,1.11-2.07.54-4,1.36-5.9,2.35-1.9,1.05-3.54,2.3-4.96,3.8-1.42,1.47-2.32,3.26-2.66,5.24-.85,5.7-1.9,11.93-3.09,18.74-1.19,6.77-2.27,13.58-3.26,20.38-.4,2.72-.74,5.36-1.08,7.99-1.25,1.45-2.55,2.86-3.94,4.28-2.52,2.55-5.19,5.02-7.99,7.37-2.78,2.38-5.64,4.56-8.53,6.6-2.89,2.04-5.67,3.83-8.33,5.36-2.64,1.53-5.07,2.78-7.34,3.69-2.21.96-4.11,1.5-5.64,1.62-2.52.2-4.79-.06-6.89-.65-2.04-.62-3.88-1.76-5.41-3.4s-2.78-3.83-3.74-6.52c-.94-2.69-1.59-6.07-1.9-10.09-.11-1.56-.26-3.29-.37-5.16-.11-1.87-.2-3.83-.28-5.87-.09-1.98-.17-4.05-.26-6.09-.09-2.07-.17-4.05-.28-6.01-.14-4.51-.23-9.07-.31-13.72,1.64-2.47,3.43-5.24,5.39-8.28,1.93-3.06,3.83-6.18,5.73-9.33l42.26-3.4c1.76-.14,3.32-1.08,4.65-2.83,1.33-1.79,1.9-3.97,1.7-6.58-.17-2.18-.65-3.94-1.45-5.3-.77-1.39-1.9-2.04-3.37-2.01-1.25,0-2.83.06-4.76.14s-3.97.2-6.18.31c-2.18.11-4.48.17-6.86.26-2.32.06-4.51.17-6.55.26-2.01.09-3.83.2-5.36.28-1.53.09-2.64.11-3.32.09,2.32-4.45,4.48-8.93,6.52-13.49,2.01-4.54,3.77-8.99,5.16-13.32,1.42-4.37,2.47-8.62,3.2-12.76.68-4.17.88-8.08.6-11.74-.34-4.31-1.16-8.45-2.49-12.33-1.28-3.94-3-7.31-5.07-10.15-2.04-2.83-4.45-5.07-7.23-6.66-2.72-1.59-5.7-2.24-8.84-1.98-4.93.4-9.44,3-13.55,7.8-4.11,4.85-7.77,11.06-10.94,18.71-3.2,7.68-5.95,16.33-8.22,26.02-2.27,9.69-4,19.7-5.19,29.91-.71.2-2.04.4-3.97.51-1.96.11-4.2.23-6.63.34-2.49.17-5.05.34-7.71.6-2.69.26-5.13.65-7.34,1.22-2.18.57-3.97,1.3-5.33,2.21-1.36.88-1.98,2.07-1.87,3.57.06.65.17,1.45.31,2.41.14.91.48,1.81.96,2.61.54.85,1.3,1.53,2.3,2.1.99.54,2.38.88,4.17.94,4.03.14,7.06.28,9.18.43s3.88.26,5.24.43c1.36.17,2.66.28,3.88.45,1.25.17,2.98.28,5.19.43-.23,5.07-.34,10.18-.31,15.28.06,5.1.26,9.89.62,14.37.77,9.41,1.93,18,3.51,25.77-2.44,3.83-4.88,7.37-7.34,10.6-1.39,1.84-2.92,3.66-4.51,5.41-1.56,1.76-3.17,3.32-4.79,4.71-1.62,1.45-3.26,2.58-4.85,3.51-1.64.91-3.23,1.47-4.76,1.59-2.07.17-3.49-.74-4.25-2.66-.79-1.93-1.3-4.62-1.59-8.14-.34-4.11-.31-8.48.03-13.15.37-4.65.79-9.33,1.33-13.97.51-4.65.94-9.18,1.33-13.61.34-4.45.4-8.45.11-12.05-.2-2.3-.54-4.11-1.05-5.41-.54-1.3-1.19-2.3-1.96-3-.79-.71-1.67-1.11-2.66-1.25-.96-.14-1.98-.17-3.12-.09-.79.06-1.62.17-2.47.28-.82.06-1.64.17-2.44.23-.99.09-1.93.14-2.83.09-.94-.03-1.87-.23-2.75-.51-.88-.31-1.7-.85-2.35-1.62-.62-.79-1.3-1.59-2.01-2.38-.71-.82-1.56-1.53-2.55-2.1-.99-.6-2.32-.85-4.03-.71-5.07.43-9.95,1.93-14.66,4.54-4.71,2.58-9.13,5.92-13.21,10.03-4.08,4.05-7.8,8.79-11.11,14.06-3.29,5.3-6.09,10.89-8.33,16.75-2.24,5.84-3.94,11.79-4.99,17.83-.4,2.27-.71,4.48-.88,6.69l-.23.23c-3.86,3.51-7.99,6.77-12.39,9.86-4.39,3.06-8.96,5.7-13.69,7.88-4.73,2.15-9.33,3.46-13.72,3.8-1.39.11-2.72.06-3.94-.14-1.22-.2-2.41-.6-3.57-1.28-1.13-.62-2.32-1.62-3.51-2.86-1.16-1.25-2.38-2.86-3.63-4.79,6.24-2.32,11.96-5.27,17.15-8.93,5.22-3.63,9.61-7.68,13.27-12.1,3.6-4.45,6.38-9.04,8.22-13.86,1.87-4.79,2.58-9.52,2.21-14.14-.37-4.28-1.39-8.05-3.12-11.37-1.73-3.32-4-6.07-6.83-8.31-2.78-2.21-6.01-3.88-9.61-4.93-3.63-1.05-7.54-1.45-11.62-1.11-5.07.4-9.58,1.67-13.61,3.86-3.97,2.18-7.54,4.93-10.63,8.33-3.06,3.37-5.7,7.17-7.85,11.45-2.21,4.28-3.91,8.7-5.22,13.32-1.22,4.37-2.07,8.79-2.49,13.27-.79.45-1.62.91-2.44,1.33-3.4,1.79-6.75,2.83-10.06,3.09-1.16.09-2.32-.06-3.4-.43-1.08-.34-2.13-1.02-3.03-2.07-.96-.99-1.76-2.38-2.38-4.11-.68-1.76-1.11-4-1.33-6.66-.14-1.56-.11-3.57.09-5.92.14-2.41.37-4.85.62-7.37.26-2.55.43-4.96.62-7.29.2-2.32.26-4.08.14-5.36-.11-1.64-.54-3.12-1.25-4.37-.68-1.25-1.56-2.3-2.64-3.09-1.05-.85-2.27-1.45-3.63-1.79-1.36-.37-2.72-.54-4.11-.43-4.05.34-7.48,1.73-10.43,4.2-2.89,2.47-5.41,5.36-7.57,8.76-2.18,3.43-4.03,7.06-5.56,10.89-1.53,3.86-2.92,7.31-4.14,10.46l-1.19.09c-.45-3.8-.85-7.65-1.16-11.59-.31-3.88-.57-7.26-.79-10.01-.2-2.27-.43-4.11-.6-5.44-.23-1.39-.65-2.35-1.19-3.03-.57-.68-1.39-1.02-2.47-1.13-1.11-.11-2.58-.09-4.51.06-1.7.14-3.12.37-4.22.65-1.13.28-2.04.71-2.78,1.33-.71.65-1.36,1.47-1.84,2.47-.51,1.05-.96,2.38-1.45,4.08-.74,2.52-1.47,5.73-2.1,9.64-.68,3.88-1.28,8.16-1.84,12.78-.62,4.62-1.13,9.52-1.56,14.6-.34,3.86-.6,7.68-.82,11.42-5.44,4.05-10.74,8.31-15.99,12.7-5.33,4.54-10.69,9.04-16.07,13.52-5.36,4.51-10.94,8.56-16.78,12.27s-11.99,6.83-18.57,9.35c-6.58,2.55-13.75,4.08-21.51,4.71-6.24.48-11.91.03-17.06-1.45-5.16-1.45-9.58-3.94-13.35-7.46-3.77-3.54-6.8-8.11-9.13-13.66-2.35-5.56-3.83-12.22-4.45-19.9-.43-5.33-.37-11.28.17-17.74.57-6.46,1.53-13.21,2.98-20.13,1.45-6.97,3.29-13.97,5.56-21.03,2.27-7.06,4.93-13.89,7.91-20.49,3-6.6,6.38-12.81,10.09-18.68,3.69-5.84,7.71-10.97,11.99-15.39,4.31-4.37,8.84-7.97,13.69-10.71,4.85-2.75,9.89-4.37,15.19-4.79,4.45-.34,8.31.03,11.54,1.16,3.23,1.16,5.95,2.78,8.08,4.9,2.18,2.13,3.83,4.65,4.96,7.6,1.13,2.95,1.84,6.12,2.1,9.44.51,6.35-.26,12.27-2.27,17.74-2.04,5.47-4.85,10.23-8.36,14.37-3.54,4.14-7.63,7.46-12.27,9.89-4.62,2.49-9.27,3.91-13.97,4.28-1.76.14-3.23.14-4.39-.03-1.16-.17-2.15-.37-3-.6-.79-.26-1.59-.45-2.24-.68-.68-.23-1.45-.28-2.35-.2-1.47.11-2.61.6-3.37,1.39-.79.82-1.36,1.84-1.67,3.06-.37,1.28-.57,2.58-.6,4.05-.03,1.5,0,2.89.11,4.22.09.94.17,1.76.28,2.61.09.79.14,1.53.2,2.1.26,3.43,2.13,5.95,5.58,7.51,3.46,1.59,8.5,2.1,15.17,1.56,5.07-.43,10.06-1.81,14.97-4.14,4.9-2.35,9.55-5.39,13.97-9.1s8.5-7.99,12.19-12.87c3.71-4.9,6.86-10.06,9.44-15.48,2.58-5.44,4.51-11.08,5.78-16.84,1.28-5.78,1.7-11.45,1.25-16.95-.68-8.22-2.64-15.28-5.87-21.09-3.23-5.84-7.17-10.54-11.85-14.14-4.62-3.63-9.75-6.15-15.31-7.63-5.58-1.45-11-1.98-16.3-1.56-8.14.68-15.87,2.64-23.22,5.92-7.34,3.32-14.2,7.6-20.66,12.9-6.43,5.3-12.42,11.4-17.91,18.23-5.5,6.86-10.46,14.29-14.88,22.14-4.42,7.85-8.28,16.02-11.59,24.49-3.29,8.48-5.98,16.92-8.11,25.29-2.07,8.42-3.54,16.61-4.37,24.6-.82,7.99-.99,15.42-.43,22.31.82,10.09,3.15,19.56,6.92,28.46,3.77,8.9,8.79,16.58,14.97,23.05,6.18,6.46,13.46,11.37,21.71,14.83,8.28,3.43,17.38,4.73,27.3,3.97,8.93-.77,17.04-2.07,24.32-4,7.26-1.93,13.86-4.31,19.81-7.06,5.95-2.78,11.34-5.87,16.16-9.3,4.79-3.43,9.21-6.97,13.24-10.66,4.03-3.66,7.77-7.34,11.17-11.06,3.09-3.32,6.07-6.46,8.96-9.5l.14-.34c.23,2.58.6,5.05,1.08,7.46.57,2.78,1.45,5.22,2.61,7.34,1.16,2.13,2.72,3.77,4.68,4.93,1.93,1.13,4.39,1.62,7.4,1.36,1.3-.11,2.49-.43,3.57-1.02,1.05-.6,1.98-1.5,2.86-2.78.85-1.28,1.64-2.92,2.44-4.9.74-1.93,1.53-4.42,2.3-7.46l15.22-57.46,1.73-.14c.99,4.65,2.15,9.21,3.46,13.72s3.09,8.56,5.39,12.1c2.3,3.51,5.19,6.29,8.76,8.31,3.57,1.98,8.08,2.78,13.61,2.32,3.06-.23,6.04-.94,8.93-2.1,2.24-.94,4.42-1.98,6.55-3.15.62,2.44,1.39,4.85,2.32,7.17,2.13,5.5,5.13,10.26,8.93,14.26,3.8,4.05,8.39,7.11,13.75,9.21,5.39,2.13,11.54,2.92,18.4,2.35,4.39-.34,8.7-1.19,12.9-2.58,4.22-1.33,8.25-3,12.1-5.02,3.88-2.01,7.54-4.22,11-6.69,2.81-2.04,5.47-4.03,7.97-6.07,1.73,3.15,3.8,5.81,6.21,8.02,2.75,2.49,5.9,4.37,9.35,5.56,3.46,1.19,6.92,1.64,10.46,1.36,3.32-.28,6.58-1.11,9.78-2.49,3.17-1.36,6.26-3.06,9.16-5.07,2.89-2.01,5.56-4.2,7.94-6.58,2.38-2.35,4.39-4.68,5.98-6.92,2.83,5.9,6.01,10.26,9.5,13.18,3.49,2.92,7.63,4.2,12.47,3.8,4.03-.31,7.99-1.67,11.85-4,3.88-2.35,7.46-5.13,10.74-8.33,3.29-3.2,6.21-6.52,8.76-9.95,1.47-1.96,2.75-3.74,3.86-5.39.62,1.36,1.28,2.69,1.96,3.94,3.37,6.24,7.31,10.89,11.85,13.97,4.54,3.09,9.61,4.42,15.17,3.97,2.69-.23,5.7-.99,8.96-2.3s6.92-3.17,11.03-5.61c4.14-2.44,8.82-5.44,14.09-9.01,3.46-2.35,7.23-4.99,11.34-7.85.31,2.78.88,5.33,1.64,7.65.94,2.72,2.24,5.02,4.03,6.83,1.79,1.81,4.03,3.12,6.72,4.03,2.69.85,5.95,1.13,9.75.82,4.25-.34,8.7-1.5,13.29-3.46,4.62-1.96,9.1-4.28,13.46-6.97,4.37-2.75,8.39-5.64,12.08-8.76,1.13-.96,2.18-1.9,3.2-2.81.62,2.81,1.45,5.47,2.49,7.91,1.42,3.23,3.37,5.9,5.92,7.91,2.52,1.98,5.9,2.83,10.15,2.49,2.61-.23,5.19-1.67,7.94-4.31,2.69-2.66,5.33-6.01,7.91-10.06,2.58-4,5.05-8.5,7.37-13.44,2.32-4.9,4.42-9.69,6.15-14.34.31,2.81,1.16,5.53,2.61,8.02,1.42,2.49,3.32,4.73,5.61,6.63,2.35,1.93,5.13,3.4,8.33,4.37,3.2.99,6.83,1.3,10.77.99,4.71-.4,9.58-1.7,14.57-4,3.03-1.39,5.95-2.98,8.82-4.79,1.76,3.15,3.86,6.01,6.26,8.56,3.8,4.05,8.39,7.11,13.75,9.21,5.41,2.13,11.57,2.92,18.43,2.35,4.39-.34,8.7-1.19,12.9-2.58,4.22-1.33,8.25-3,12.1-5.02,3.88-2.01,7.54-4.22,11-6.69s2.66.03,5.47-2.66c25.26-24.04,5.95-37.67-6.07-24.8ZM280.05,166.16c-.11-1.64-.2-3.66-.28-5.95-.03-2.32.11-4.73.37-7.26.28-2.49.79-4.99,1.5-7.51.71-2.49,1.76-4.76,3.12-6.8,1.33-1.98,3.09-3.71,5.22-5.07,2.15-1.36,4.79-2.18,7.94-2.44,1.76-.14,3.34.82,4.73,2.89,1.36,2.1,2.18,4.79,2.47,8.16.17,2.35-.51,4.93-2.15,7.6-1.62,2.72-3.69,5.24-6.18,7.63-2.49,2.35-5.24,4.39-8.25,6.01-3,1.62-5.84,2.55-8.48,2.75ZM392.73,156.67c-.11,2.41-.51,5.44-1.19,9.13-.71,3.63-1.73,7.23-3.06,10.71-1.33,3.49-3.03,6.52-5.05,9.1-1.98,2.52-4.39,3.91-7.09,4.14-1.7.11-3.12-.17-4.28-.94-1.22-.79-2.15-1.81-2.95-3.15-.74-1.33-1.33-2.86-1.73-4.59-.43-1.76-.68-3.54-.82-5.41l.03.06c-.26-3.29-.11-6.83.4-10.66.57-3.8,1.42-7.6,2.66-11.42s2.81-7.48,4.68-11.03c1.87-3.54,3.97-6.72,6.26-9.52,2.3-2.83,4.85-5.13,7.57-6.89,2.72-1.76,5.64-2.75,8.65-3l-4.08,33.48ZM470.43,82.09c.85-6.15,1.81-12.5,2.86-19.05,1.08-6.55,2.3-12.59,3.66-18.09,1.33-5.47,2.86-10.01,4.54-13.61,1.67-3.6,3.43-5.5,5.36-5.64,1.39-.11,2.52.11,3.32.65.82.51,1.45,1.22,1.9,2.07.4.88.74,1.81.94,2.81.2.99.31,1.9.37,2.75v.06c.2,2.38-.2,5.47-1.13,9.33-.94,3.83-2.21,7.97-3.77,12.42-1.56,4.45-3.34,8.96-5.36,13.63-2.04,4.62-4,8.93-5.87,12.9-1.19-.03-2.35-.09-3.46-.11-1.11-.03-2.24-.06-3.34-.11ZM715.83,131.07c-.11-1.64-.2-3.66-.28-5.95-.03-2.32.11-4.73.37-7.26.28-2.49.79-4.99,1.5-7.51.71-2.49,1.76-4.76,3.12-6.8,1.33-1.98,3.09-3.71,5.22-5.07,2.15-1.36,4.79-2.18,7.94-2.44,1.76-.14,3.34.82,4.73,2.89,1.36,2.1,2.18,4.79,2.47,8.16.17,2.35-.51,4.93-2.15,7.6-1.62,2.72-3.69,5.24-6.18,7.63-2.49,2.35-5.24,4.39-8.25,6.01-3,1.62-5.84,2.55-8.48,2.75Z"/>
    <path class="cls-1" d="M578.66,39.99c-1.76-1.08-3.8-1.84-6.15-2.27-2.3-.37-4.76-.48-7.31-.28-4.08.34-7.48,1.25-10.12,2.78s-4.73,3.32-6.24,5.36c-1.47,2.04-2.52,4.17-3.06,6.41-.57,2.24-.77,4.17-.62,5.9v-.06c.4,5.16,2.3,9.16,5.61,12.02,3.32,2.86,8.22,4.03,14.68,3.51,3.71-.28,6.89-1.16,9.47-2.52,2.58-1.36,4.68-3.06,6.29-5.07,1.62-1.98,2.72-4.22,3.34-6.69.6-2.44.79-4.93.6-7.48-.23-2.75-.91-5.13-2.07-7.03-1.16-1.93-2.64-3.49-4.42-4.56Z"/>
  </g>
</svg>