<?xml version="1.0" encoding="UTF-8"?>
<svg id="Capa_2" data-name="Capa 2" xmlns="http://www.w3.org/2000/svg" viewBox="0 0 1120.93 512.2">
  <defs>
    <style>
      .cls-1 {
        fill: #098387;
        stroke-width: 0px;
      }
    </style>
  </defs>
  <g id="Capa_1-2" data-name="Capa 1">
    <path class="cls-1" d="M825.38,89.32c1.62,2.52,3.32,5.02,4.9,7.57l60.97,98.02c13.58,21.83,27.35,43.54,40.99,65.37,6.75,10.8,13.78,21.46,20.07,32.54,2.38,4.2,6.26,8.62,11.23,9.24,3.32.43,6.24-.96,8.45-3.4,1.73-1.87,2.78-4.14,3.06-6.72.45-3.88-.79-7.63-1.76-11.34-5.33-20.41-11.57-40.59-17.01-60.97-1.05-3.94-2.18-7.88-3.26-11.82-1.62-5.87-3.23-11.71-4.82-17.57-1.73-6.43-3.43-12.87-4.96-19.36-.54-2.32-1.08-4.68-1.5-7.03-.11-.57-.23-1.16-.31-1.76.74-.57,1.53-1.08,2.3-1.59,1.62-1.08,3.29-2.1,4.93-3.12,3.71-2.3,9.89-5.87,12.02-9.72,1.9-3.46,2.15-6.8,2.78-10.6.51-3.17,1.25-5.33,3.83-7.31,3.2-2.49,7.43-2.49,10.77-.26,2.21,1.47,3.74,3.74,4.25,6.41.77,3.86-.65,7.77-2.64,11l-.06.11-.08.17-2.1,4.54c-.31.65-.14,1.42.4,1.87l1.47,1.3c1.64,1.42,3.32,2.89,5.64,2.52,2.44-.4,3.32-2.41,4.39-4.31,3.63-6.41,5.24-12.67,3.49-20.04-1.28-5.24-4.9-9.84-9.3-12.78-4.62-3.12-10.32-4.62-15.76-3.32-5.73,1.36-10.2,4.51-12.76,9.98-1.79,3.8-2.18,7.63-3.12,11.62-.26,1.05-.62,2.86-1.3,3.71-.37.45-.91.82-1.39,1.13-1.16.77-2.41,1.45-3.6,2.15-3.54,2.07-6.94,4.34-10.29,6.69v-.03c-.88-.71-1.76-1.45-2.64-2.18-2.78-2.35-5.53-4.73-8.28-7.11-4.25-3.71-8.45-7.46-12.7-11.14l-66.22-57.66c-4.56-3.97-9.5-9.64-15.82-10.15-9.16-.77-13.18,8.42-9.64,16.16,1.47,3.2,3.46,6.24,5.36,9.18ZM829.8,75.34s0,0,0,.01c.73.43,1.6,1.16,2.18,1.6,2.04,1.56,4.03,3.17,5.98,4.82,5.56,4.59,11,9.33,16.44,14.09,5.1,4.48,10.2,8.96,15.28,13.46,3.17,2.81,6.32,5.64,9.52,8.45,8.16,7.14,16.47,14.14,24.69,21.23,5.05,4.34,10.09,8.7,15.11,13.1,3.71,3.26,7.43,6.55,11.03,9.95.11.28.23.62.31.91.34,1.02.65,2.07.94,3.12.79,2.92,1.5,5.84,2.21,8.79.68,2.83,1.33,5.67,1.98,8.53.43,1.9.85,3.8,1.36,5.67,2.61,9.72,5.02,19.5,7.77,29.2,1.3,4.54,2.66,9.04,3.97,13.58,2.21,7.54,4.39,15.11,6.55,22.68,2.21,7.85,4.42,15.7,6.41,23.61.71,2.81,1.39,5.61,1.96,8.42.14.74.6,2.72.57,3.46-.03.11-.06.26-.11.4-1.19-1.11-2.38-3.17-3.09-4.54-3.15-5.98-6.77-11.68-10.43-17.32-3.06-4.73-6.18-9.41-9.16-14.2l-108.48-173.85c-.62-.99-2.57-3.76-2.97-5.15-.02-.01-.04-.03-.06-.04l.06.03Z"/>
    <path class="cls-1" d="M1102.49,365.24c-3.57,3.83-3.74,3.15-8.16,6.21-4.39,3.06-8.96,5.7-13.69,7.88-4.73,2.15-9.33,3.43-13.72,3.8-1.39.11-2.72.06-3.94-.14-1.22-.2-2.41-.6-3.57-1.28-1.13-.62-2.32-1.62-3.52-2.86-1.16-1.25-2.38-2.86-3.63-4.79,6.24-2.32,11.96-5.27,17.15-8.93,5.22-3.63,9.61-7.68,13.27-12.1,3.6-4.45,6.38-9.04,8.22-13.86,1.87-4.79,2.58-9.52,2.21-14.14-.37-4.28-1.39-8.05-3.12-11.37s-4-6.07-6.83-8.31c-2.78-2.21-6.01-3.88-9.61-4.93-3.63-1.05-7.54-1.45-11.62-1.11-5.07.4-9.58,1.67-13.61,3.86-3.97,2.18-7.54,4.93-10.63,8.33-3.06,3.37-5.7,7.17-7.85,11.45-2.21,4.28-3.91,8.7-5.22,13.32s-2.15,9.3-2.58,14.03c-.45,4.73-.48,9.21-.14,13.38l.03.51c-2.07,1.33-4.22,2.55-6.52,3.71-2.78,1.39-5.3,2.18-7.51,2.35-3,.26-5.47.03-7.46-.62-1.96-.71-3.57-1.7-4.76-2.98-1.22-1.3-2.1-2.78-2.69-4.45-.6-1.67-.94-3.43-1.08-5.22-.14-1.7-.17-3.37-.03-4.99.14-1.62.31-3.09.6-4.39.28-1.45.57-2.86.99-4.28,1.33-3.77,2.55-7.06,3.71-9.89,1.13-2.78,2.1-5.33,2.89-7.63.85-2.27,1.42-4.34,1.84-6.26.37-1.9.51-3.91.34-5.98-.23-2.78-1.7-4.93-4.42-6.49-2.69-1.56-6.18-2.15-10.43-1.81-1.62.11-3.15.48-4.54,1.05-1.39.57-2.64,1.25-3.77,2.04-1.11.82-1.98,1.73-2.66,2.75-.65,1.05-1.05,2.1-1.19,3.17l-23.3,72.54-1.53.23-1.39-71.23c-.23-1.96-1.08-3.6-2.55-4.99-1.5-1.39-3.49-1.98-5.95-1.79-.37.03-.71.11-1.05.17s-.68.11-1.05.23l-13.01,3.2c-2.35.57-3.66,3.03-4.03,7.37-.37,4.34-.23,10.37.4,18.06.26,3,.51,5.92.82,8.76.31,2.83.68,5.92,1.13,9.27.45,3.34.99,7.09,1.5,11.2.45,3.29.94,7.03,1.45,11.23l-.37.37c-2.92,3.09-5.92,6.12-9.01,9.01-3.12,2.92-6.18,5.44-9.27,7.57-3.09,2.13-5.92,3.29-8.56,3.49-2.27.2-3.86-.65-4.73-2.58-.94-1.93-1.5-4.56-1.79-7.94-.28-3.4-.2-7.34.2-11.68.37-4.37.96-8.82,1.67-13.46.71-4.62,1.53-9.21,2.44-13.83.88-4.59,1.7-8.93,2.47-12.93.79-4.03,1.42-7.6,1.93-10.74.45-3.17.65-5.58.51-7.23-.14-1.93-.82-3.46-2.01-4.51-1.16-1.05-3.32-1.5-6.41-1.25-1.67.14-3.54.51-5.61,1.11-2.07.54-4,1.36-5.9,2.35-1.9,1.05-3.54,2.3-4.96,3.8-1.42,1.47-2.32,3.26-2.66,5.24-.85,5.7-1.9,11.93-3.09,18.74-1.19,6.77-2.27,13.58-3.26,20.38-.4,2.72-.74,5.36-1.08,7.99-1.25,1.45-2.55,2.86-3.94,4.28-2.52,2.55-5.19,5.02-7.99,7.37-2.78,2.38-5.64,4.56-8.53,6.6-2.89,2.04-5.67,3.83-8.33,5.36-2.64,1.53-5.07,2.78-7.34,3.69-2.21.96-4.11,1.5-5.64,1.62-2.52.2-4.79-.06-6.89-.65-2.04-.62-3.88-1.76-5.41-3.4s-2.78-3.83-3.74-6.52c-.94-2.69-1.59-6.07-1.9-10.09-.11-1.56-.26-3.29-.37-5.16-.11-1.87-.2-3.83-.28-5.87-.09-1.98-.17-4.05-.26-6.09-.09-2.07-.17-4.05-.28-6.01-.14-4.51-.23-9.07-.31-13.72,1.64-2.47,3.43-5.24,5.39-8.28,1.93-3.06,3.83-6.18,5.73-9.33l42.26-3.4c1.76-.14,3.32-1.08,4.65-2.83,1.33-1.79,1.9-3.97,1.7-6.58-.17-2.18-.65-3.94-1.45-5.3-.77-1.39-1.9-2.04-3.37-2.01-1.25,0-2.83.06-4.76.14s-3.97.2-6.18.31c-2.18.11-4.48.17-6.86.26-2.32.06-4.51.17-6.55.26-2.01.09-3.83.2-5.36.28-1.53.09-2.64.11-3.32.09,2.32-4.45,4.48-8.93,6.52-13.49,2.01-4.54,3.77-8.99,5.16-13.32,1.42-4.37,2.47-8.62,3.2-12.76.68-4.17.88-8.08.6-11.74-.34-4.31-1.16-8.45-2.49-12.33-1.28-3.94-3-7.31-5.07-10.15-2.04-2.83-4.45-5.07-7.23-6.66-2.72-1.59-5.7-2.24-8.84-1.98-4.93.4-9.44,3-13.55,7.8-4.11,4.85-7.77,11.06-10.94,18.71-3.2,7.68-5.95,16.33-8.22,26.02-2.27,9.69-4,19.7-5.19,29.91-.71.2-2.04.4-3.97.51-1.96.11-4.2.23-6.63.34-2.49.17-5.05.34-7.71.6-2.69.26-5.13.65-7.34,1.22-2.18.57-3.97,1.3-5.33,2.21-1.36.88-1.98,2.07-1.87,3.57.06.65.17,1.45.31,2.41.14.91.48,1.81.96,2.61.54.85,1.3,1.53,2.3,2.1.99.54,2.38.88,4.17.94,4.03.14,7.06.28,9.18.43s3.88.26,5.24.43c1.36.17,2.66.28,3.88.45,1.25.17,2.98.28,5.19.43-.23,5.07-.34,10.18-.31,15.28.06,5.1.26,9.89.62,14.37.77,9.41,1.93,18,3.51,25.77-2.44,3.83-4.88,7.37-7.34,10.6-1.39,1.84-2.92,3.66-4.51,5.41-1.56,1.76-3.17,3.32-4.79,4.71-1.62,1.45-3.26,2.58-4.85,3.51-1.64.91-3.23,1.47-4.76,1.59-2.07.17-3.49-.74-4.25-2.66-.79-1.93-1.3-4.62-1.59-8.14-.34-4.11-.31-8.48.03-13.15.37-4.65.79-9.33,1.33-13.97.51-4.65.94-9.18,1.33-13.61.34-4.45.4-8.45.11-12.05-.2-2.3-.54-4.11-1.05-5.41-.54-1.3-1.19-2.3-1.96-3-.79-.71-1.67-1.11-2.66-1.25-.96-.14-1.98-.17-3.12-.09-.79.06-1.62.17-2.47.28-.82.06-1.64.17-2.44.23-.99.09-1.93.14-2.83.09-.94-.03-1.87-.23-2.75-.51-.88-.31-1.7-.85-2.35-1.62-.62-.79-1.3-1.59-2.01-2.38-.71-.82-1.56-1.53-2.55-2.1-.99-.6-2.32-.85-4.03-.71-5.07.43-9.95,1.93-14.66,4.54-4.71,2.58-9.13,5.92-13.21,10.03-4.08,4.05-7.8,8.79-11.11,14.06-3.29,5.3-6.09,10.89-8.33,16.75-2.24,5.84-3.94,11.79-4.99,17.83-.4,2.27-.71,4.48-.88,6.69l-.23.23c-3.86,3.51-7.99,6.77-12.39,9.86-4.39,3.06-8.96,5.7-13.69,7.88-4.73,2.15-9.33,3.46-13.72,3.8-1.39.11-2.72.06-3.94-.14-1.22-.2-2.41-.6-3.57-1.28-1.13-.62-2.32-1.62-3.51-2.86-1.16-1.25-2.38-2.86-3.63-4.79,6.24-2.32,11.96-5.27,17.15-8.93,5.22-3.63,9.61-7.68,13.27-12.1,3.6-4.45,6.38-9.04,8.22-13.86,1.87-4.79,2.58-9.52,2.21-14.14-.37-4.28-1.39-8.05-3.12-11.37-1.73-3.32-4-6.07-6.83-8.31-2.78-2.21-6.01-3.88-9.61-4.93-3.63-1.05-7.54-1.45-11.62-1.11-5.07.4-9.58,1.67-13.61,3.86-3.97,2.18-7.54,4.93-10.63,8.33-3.06,3.37-5.7,7.17-7.85,11.45-2.21,4.28-3.91,8.7-5.22,13.32-1.22,4.37-2.07,8.79-2.49,13.27-.79.45-1.62.91-2.44,1.33-3.4,1.79-6.75,2.83-10.06,3.09-1.16.09-2.32-.06-3.4-.43-1.08-.34-2.13-1.02-3.03-2.07-.96-.99-1.76-2.38-2.38-4.11-.68-1.76-1.11-4-1.33-6.66-.14-1.56-.11-3.57.09-5.92.14-2.41.37-4.85.62-7.37.26-2.55.43-4.96.62-7.29.2-2.32.26-4.08.14-5.36-.11-1.64-.54-3.12-1.25-4.37-.68-1.25-1.56-2.3-2.64-3.09-1.05-.85-2.27-1.45-3.63-1.79-1.36-.37-2.72-.54-4.11-.43-4.05.34-7.48,1.73-10.43,4.2-2.89,2.47-5.41,5.36-7.57,8.76-2.18,3.43-4.03,7.06-5.56,10.89-1.53,3.86-2.92,7.31-4.14,10.46l-1.19.09c-.45-3.8-.85-7.65-1.16-11.59-.31-3.88-.57-7.26-.79-10.01-.2-2.27-.43-4.11-.6-5.44-.23-1.39-.65-2.35-1.19-3.03-.57-.68-1.39-1.02-2.47-1.13-1.11-.11-2.58-.09-4.51.06-1.7.14-3.12.37-4.22.65-1.13.28-2.04.71-2.78,1.33-.71.65-1.36,1.47-1.84,2.47-.51,1.05-.96,2.38-1.45,4.08-.74,2.52-1.47,5.73-2.1,9.64-.68,3.88-1.28,8.16-1.84,12.78-.62,4.62-1.13,9.52-1.56,14.6-.34,3.86-.6,7.68-.82,11.42-5.44,4.05-10.74,8.31-15.99,12.7-5.33,4.54-10.69,9.04-16.07,13.52-5.36,4.51-10.94,8.56-16.78,12.27s-11.99,6.83-18.57,9.35c-6.58,2.55-13.75,4.08-21.51,4.71-6.24.48-11.91.03-17.06-1.45-5.16-1.45-9.58-3.94-13.35-7.46-3.77-3.54-6.8-8.11-9.13-13.66-2.35-5.56-3.83-12.22-4.45-19.9-.43-5.33-.37-11.28.17-17.74.57-6.46,1.53-13.21,2.98-20.13,1.45-6.97,3.29-13.97,5.56-21.03,2.27-7.06,4.93-13.89,7.91-20.49,3-6.6,6.38-12.81,10.09-18.68,3.69-5.84,7.71-10.97,11.99-15.39,4.31-4.37,8.84-7.97,13.69-10.71,4.85-2.75,9.89-4.37,15.19-4.79,4.45-.34,8.31.03,11.54,1.16,3.23,1.16,5.95,2.78,8.08,4.9,2.18,2.13,3.83,4.65,4.96,7.6,1.13,2.95,1.84,6.12,2.1,9.44.51,6.35-.26,12.27-2.27,17.74-2.04,5.47-4.85,10.23-8.36,14.37-3.54,4.14-7.63,7.46-12.27,9.89-4.62,2.49-9.27,3.91-13.97,4.28-1.76.14-3.23.14-4.39-.03-1.16-.17-2.15-.37-3-.6-.79-.26-1.59-.45-2.24-.68-.68-.23-1.45-.28-2.35-.2-1.47.11-2.61.6-3.37,1.39-.79.82-1.36,1.84-1.67,3.06-.37,1.28-.57,2.58-.6,4.05-.03,1.5,0,2.89.11,4.22.09.94.17,1.76.28,2.61.09.79.14,1.53.2,2.1.26,3.43,2.13,5.95,5.58,7.51,3.46,1.59,8.5,2.1,15.17,1.56,5.07-.43,10.06-1.81,14.97-4.14,4.9-2.35,9.55-5.39,13.97-9.1s8.5-7.99,12.19-12.87c3.71-4.9,6.86-10.06,9.44-15.48,2.58-5.44,4.51-11.08,5.78-16.84,1.28-5.78,1.7-11.45,1.25-16.95-.68-8.22-2.64-15.28-5.87-21.09-3.23-5.84-7.17-10.54-11.85-14.14-4.62-3.63-9.75-6.15-15.31-7.63-5.58-1.45-11-1.98-16.3-1.56-8.14.68-15.87,2.64-23.22,5.92-7.34,3.32-14.2,7.6-20.66,12.9-6.43,5.3-12.42,11.4-17.91,18.23-5.5,6.86-10.46,14.29-14.88,22.14-4.42,7.85-8.28,16.02-11.59,24.49-3.29,8.48-5.98,16.92-8.11,25.29-2.07,8.42-3.54,16.61-4.37,24.6-.82,7.99-.99,15.42-.43,22.31.82,10.09,3.15,19.56,6.92,28.46,3.77,8.9,8.79,16.58,14.97,23.05,6.18,6.46,13.46,11.37,21.71,14.83,8.28,3.43,17.38,4.73,27.3,3.97,8.93-.77,17.04-2.07,24.32-4,7.26-1.93,13.86-4.31,19.81-7.06,5.95-2.78,11.34-5.87,16.16-9.3,4.79-3.43,9.21-6.97,13.24-10.66,4.03-3.66,7.77-7.34,11.17-11.06,3.09-3.32,6.07-6.46,8.96-9.5l.14-.34c.23,2.58.6,5.05,1.08,7.46.57,2.78,1.45,5.22,2.61,7.34,1.16,2.13,2.72,3.77,4.68,4.93,1.93,1.13,4.39,1.62,7.4,1.36,1.3-.11,2.49-.43,3.57-1.02,1.05-.6,1.98-1.5,2.86-2.78.85-1.28,1.64-2.92,2.44-4.9.74-1.93,1.53-4.42,2.3-7.46l15.22-57.46,1.73-.14c.99,4.65,2.15,9.21,3.46,13.72s3.09,8.56,5.39,12.1c2.3,3.51,5.19,6.29,8.76,8.31,3.57,1.98,8.08,2.78,13.61,2.32,3.06-.23,6.04-.94,8.93-2.1,2.24-.94,4.42-1.98,6.55-3.15.62,2.44,1.39,4.85,2.32,7.17,2.13,5.5,5.13,10.26,8.93,14.26,3.8,4.05,8.39,7.11,13.75,9.21,5.39,2.13,11.54,2.92,18.4,2.35,4.39-.34,8.7-1.19,12.9-2.58,4.22-1.33,8.25-3,12.1-5.02,3.88-2.01,7.54-4.22,11-6.69,2.81-2.04,5.47-4.03,7.97-6.07,1.73,3.15,3.8,5.81,6.21,8.02,2.75,2.49,5.9,4.37,9.35,5.56,3.46,1.19,6.92,1.64,10.46,1.36,3.32-.28,6.58-1.11,9.78-2.49,3.17-1.36,6.26-3.06,9.16-5.07,2.89-2.01,5.56-4.2,7.94-6.58,2.38-2.35,4.39-4.68,5.98-6.92,2.83,5.9,6.01,10.26,9.5,13.18,3.49,2.92,7.63,4.2,12.47,3.8,4.03-.31,7.99-1.67,11.85-4,3.88-2.35,7.46-5.13,10.74-8.33,3.29-3.2,6.21-6.52,8.76-9.95,1.47-1.96,2.75-3.74,3.86-5.39.62,1.36,1.28,2.69,1.96,3.94,3.37,6.24,7.31,10.89,11.85,13.97,4.54,3.09,9.61,4.42,15.17,3.97,2.69-.23,5.7-.99,8.96-2.3s6.92-3.17,11.03-5.61c4.14-2.44,8.82-5.44,14.09-9.01,3.46-2.35,7.23-4.99,11.34-7.85.31,2.78.88,5.33,1.64,7.65.94,2.72,2.24,5.02,4.03,6.83,1.79,1.81,4.03,3.12,6.72,4.03,2.69.85,5.95,1.13,9.75.82,4.25-.34,8.7-1.5,13.29-3.46,4.62-1.96,9.1-4.28,13.46-6.97,4.37-2.75,8.39-5.64,12.08-8.76,1.13-.96,2.18-1.9,3.2-2.81.62,2.81,1.45,5.47,2.49,7.91,1.42,3.23,3.37,5.9,5.92,7.91,2.52,1.98,5.9,2.83,10.15,2.49,2.61-.23,5.19-1.67,7.94-4.31,2.69-2.66,5.33-6.01,7.91-10.06,2.58-4,5.05-8.5,7.37-13.44,2.32-4.9,4.42-9.69,6.15-14.34.31,2.81,1.16,5.53,2.61,8.02,1.42,2.49,3.32,4.73,5.61,6.63,2.35,1.93,5.13,3.4,8.33,4.37,3.2.99,6.83,1.3,10.77.99,4.71-.4,9.58-1.7,14.57-4,3.03-1.39,5.95-2.98,8.82-4.79,1.76,3.15,3.86,6.01,6.26,8.56,3.8,4.05,8.39,7.11,13.75,9.21,5.41,2.13,11.57,2.92,18.43,2.35,4.39-.34,8.7-1.19,12.9-2.58,4.22-1.33,8.25-3,12.1-5.02,3.88-2.01,7.54-4.22,11-6.69s2.66.03,5.47-2.66c25.26-24.04,5.95-37.67-6.07-24.8ZM612.5,391.09c-.11-1.64-.2-3.66-.28-5.95-.03-2.32.11-4.73.37-7.26.28-2.49.79-4.99,1.5-7.51.71-2.49,1.76-4.76,3.12-6.8,1.33-1.98,3.09-3.71,5.22-5.07,2.15-1.36,4.79-2.18,7.94-2.44,1.76-.14,3.34.82,4.73,2.89,1.36,2.1,2.18,4.79,2.47,8.16.17,2.35-.51,4.93-2.15,7.6-1.62,2.72-3.69,5.24-6.18,7.63-2.49,2.35-5.24,4.39-8.25,6.01-3,1.62-5.84,2.55-8.48,2.75ZM725.17,381.6c-.11,2.41-.51,5.44-1.19,9.13-.71,3.63-1.73,7.23-3.06,10.71-1.33,3.49-3.03,6.52-5.05,9.1-1.98,2.52-4.39,3.91-7.09,4.14-1.7.11-3.12-.17-4.28-.94-1.22-.79-2.15-1.81-2.95-3.15-.74-1.33-1.33-2.86-1.73-4.59-.43-1.76-.68-3.54-.82-5.41l.03.06c-.26-3.29-.11-6.83.4-10.66.57-3.8,1.42-7.6,2.66-11.42s2.81-7.48,4.68-11.03c1.87-3.54,3.97-6.72,6.26-9.52,2.3-2.83,4.85-5.13,7.57-6.89,2.72-1.76,5.64-2.75,8.65-3l-4.08,33.48ZM802.87,307.02c.85-6.15,1.81-12.5,2.86-19.05,1.08-6.55,2.3-12.59,3.66-18.09,1.33-5.47,2.86-10.01,4.54-13.61,1.67-3.6,3.43-5.5,5.36-5.64,1.39-.11,2.52.11,3.32.65.82.51,1.45,1.22,1.9,2.07.4.88.74,1.81.94,2.81.2.99.31,1.9.37,2.75v.06c.2,2.38-.2,5.47-1.13,9.33-.94,3.83-2.21,7.97-3.77,12.42-1.56,4.45-3.34,8.96-5.36,13.63-2.04,4.62-4,8.93-5.87,12.9-1.19-.03-2.35-.09-3.46-.11-1.11-.03-2.24-.06-3.34-.11ZM1048.27,356c-.11-1.64-.2-3.66-.28-5.95-.03-2.32.11-4.73.37-7.26.28-2.49.79-4.99,1.5-7.51.71-2.49,1.76-4.76,3.12-6.8,1.33-1.98,3.09-3.71,5.22-5.07,2.15-1.36,4.79-2.18,7.94-2.44,1.76-.14,3.34.82,4.73,2.89,1.36,2.1,2.18,4.79,2.47,8.16.17,2.35-.51,4.93-2.15,7.6-1.62,2.72-3.69,5.24-6.18,7.63-2.49,2.35-5.24,4.39-8.25,6.01-3,1.62-5.84,2.55-8.48,2.75Z"/>
    <path class="cls-1" d="M109.66,227.68c3.77,8.9,8.79,16.58,14.97,23.05,6.18,6.46,13.46,11.37,21.71,14.83,8.28,3.43,17.38,4.73,27.3,3.97,8.93-.77,17.04-2.07,24.32-4,7.26-1.93,13.86-4.31,19.81-7.06,5.95-2.78,11.34-5.87,16.16-9.3,4.79-3.43,9.21-6.97,13.24-10.66,4.03-3.66,7.77-7.37,11.17-11.06,3.43-3.71,6.75-7.2,9.95-10.54.51-.51.99-1.02,1.47-1.53l.23-.11c.74,1.67,1.53,3.26,2.32,4.79,3,5.78,6.35,10.29,10.06,13.58s7.54,4.73,11.48,4.42c2.52-.23,5.16-.77,7.97-1.73,2.81-.91,5.67-2.1,8.59-3.57,2.92-1.42,5.78-3,8.62-4.76,2.83-1.81,5.58-3.57,8.25-5.36,1.73-1.22,3.49-2.47,5.22-3.77l.31.4c3.29,4.39,7.34,7.85,12.16,10.35s10.46,3.49,16.92,2.98c4.48-.37,8.65-1.5,12.47-3.4,3.86-1.87,7.34-4.28,10.46-7.26,3.12-2.95,5.84-6.35,8.14-10.23,2.3-3.86,4.2-7.97,5.67-12.27,1.47-4.34,2.47-8.76,3.09-13.32.57-4.56.71-9.01.34-13.46-.34-4.39-1.25-8.96-2.72-13.66-1.45-4.73-3.37-9.21-5.87-13.35l.77-1.33c2.81,1.59,6.15,3.54,10.01,5.92,3.91,2.32,7.85,4.88,11.88,7.54,4,2.66,7.82,5.44,11.45,8.31l.2.17c.82,6.09,1.9,11.76,3.15,17.04,2.15,9.1,4.93,16.72,8.31,22.96s7.31,10.89,11.85,13.97c4.54,3.09,9.61,4.42,15.17,3.97,2.69-.23,5.7-.99,8.96-2.3s6.92-3.17,11.03-5.61c4.14-2.44,8.82-5.44,14.09-9.01,4.05-2.78,8.59-5.92,13.55-9.41.23,2.21.51,4.39.85,6.55.43,2.98,1.13,5.61,2.07,7.88.91,2.32,2.15,4.11,3.66,5.41,1.5,1.3,3.46,1.87,5.87,1.67,1.84-.14,3.32-.68,4.42-1.59,1.11-.94,2.1-2.18,2.98-3.88.82-1.67,1.67-3.83,2.49-6.43.79-2.58,1.93-5.64,3.26-9.13,2.64-7.03,5.75-13.92,9.21-20.64,3.49-6.69,6.89-12.76,10.2-18.17,3.34-5.41,6.35-9.89,9.04-13.49s4.68-5.87,5.84-6.77l2.32.11c-.2.26-.6,1.13-1.22,2.61-.6,1.47-1.33,3.37-2.15,5.67-.79,2.35-1.64,4.96-2.58,7.91-.91,2.92-1.67,5.9-2.38,8.96-.68,3.06-1.22,6.09-1.59,9.1-.4,3-.48,5.7-.28,8.08.28,3.6,1.08,7.37,2.35,11.31,1.28,4,3,7.57,5.19,10.83,2.18,3.26,4.85,5.84,7.99,7.82,3.15,1.93,6.72,2.78,10.77,2.44,2.64-.23,5.36-.91,8.19-2.01,2.81-1.16,5.61-2.49,8.39-4.14,2.81-1.62,5.53-3.4,8.25-5.44,2.75-2.01,5.24-4,7.57-5.95,2.1-1.81,4.08-3.54,5.87-5.16,1.25,1.81,2.64,3.51,4.14,5.1,3.8,4.05,8.39,7.11,13.75,9.21,5.39,2.13,11.54,2.92,18.4,2.35,4.39-.34,8.7-1.19,12.9-2.58,4.22-1.33,8.25-3,12.1-5.02,3.88-2.01,7.54-4.22,11-6.69,3.46-2.47,6.66-4.9,9.64-7.43.85-.71,1.7-1.47,2.55-2.21.77,3.43,2.01,6.32,3.77,8.7,1.98,2.69,4.48,4.79,7.43,6.32,2.95,1.53,6.38,2.55,10.15,3.06,3.83.54,7.88.6,12.19.26,6.07-.48,12.36-1.67,18.96-3.6,6.58-1.9,13.07-4.31,19.45-7.26,6.38-2.89,12.16-6.66,18.14-9.81,26.67-14.09,16.3-32.26-3.46-24.92-3.71,1.39-3.4,2.27-6.58,4.11-3.17,1.81-3.09,1.76-6.01,3.49s-5.64,3.54-8.14,5.56c-.4-4.79-.88-8.9-1.5-12.39-.62-3.49-1.33-6.55-2.07-9.18-.77-2.66-1.53-4.99-2.3-6.97-.74-2.04-1.45-3.94-2.15-5.73s-1.28-3.57-1.76-5.47c-.48-1.9-.79-4-.99-6.32.17-.82.88-2.15,2.3-3.97,1.39-1.79,2.81-3.77,4.34-5.92,1.53-2.15,2.89-4.34,4.11-6.63,1.19-2.3,1.76-4.31,1.62-6.09-.09-.94-.23-1.98-.48-3.2-.23-1.22-.85-2.35-1.81-3.4-.99-1.02-2.47-1.87-4.45-2.52-1.96-.62-4.73-.82-8.22-.54-2.13.17-4.03.65-5.7,1.42-1.67.79-3.2,1.73-4.54,2.86-1.33,1.11-2.55,2.35-3.63,3.71-1.05,1.36-2.04,2.78-2.86,4.2-4.22,6.35-7.65,11.62-10.26,15.87-2.61,4.22-4.82,7.82-6.66,10.74s-3.43,5.47-4.76,7.57c-1.33,2.15-2.86,4.28-4.51,6.41-1.7,2.15-3.74,4.51-6.09,7.11-.51.57-1.08,1.19-1.67,1.81l-.68-.62c-2.64,3.06-5.9,6.35-9.72,9.86-3.86,3.51-7.99,6.77-12.39,9.86-4.39,3.06-8.96,5.7-13.69,7.88-4.73,2.15-9.33,3.46-13.72,3.8-1.39.11-2.72.06-3.94-.14-1.22-.2-2.41-.6-3.57-1.28-1.13-.62-2.32-1.62-3.51-2.86-1.16-1.25-2.38-2.86-3.63-4.79,6.24-2.32,11.96-5.27,17.15-8.93,5.22-3.63,9.61-7.68,13.27-12.1,3.6-4.45,6.38-9.04,8.22-13.86,1.87-4.79,2.58-9.52,2.21-14.14-.37-4.28-1.39-8.05-3.12-11.37-1.76-3.32-4-6.07-6.83-8.31-2.78-2.21-6.01-3.88-9.61-4.93-3.63-1.05-7.54-1.45-11.62-1.11-5.07.4-9.58,1.67-13.61,3.86-3.97,2.18-7.54,4.93-10.63,8.33-3.06,3.37-5.7,7.17-7.85,11.45-2.21,4.25-3.91,8.7-5.22,13.32-1.3,4.62-2.15,9.3-2.58,14.03-.45,4.73-.48,9.21-.14,13.38.11,1.47.28,2.95.51,4.39-.57.62-1.11,1.25-1.67,1.87-1.56,1.79-3.23,3.54-5.02,5.22-1.79,1.7-3.6,3.23-5.5,4.56s-3.8,2.49-5.7,3.37c-1.93.91-3.8,1.42-5.56,1.56-1.39.11-2.58-.68-3.63-2.41-1.02-1.7-1.67-4.05-1.9-7.03-.43-5.47-.17-10.74.77-15.87.96-5.1,2.07-10.12,3.34-15.08,1.25-4.96,2.38-9.89,3.37-14.83.99-4.93,1.3-9.92.91-15-.2-2.52-.71-4.59-1.5-6.15-.77-1.56-1.7-2.69-2.75-3.54-1.11-.79-2.21-1.33-3.32-1.59s-2.15-.31-3-.26c-3.51.28-7.17,1.87-10.94,4.88-3.8,2.95-7.57,6.6-11.25,10.91-3.71,4.37-7.26,8.99-10.63,13.92-3.34,4.9-6.38,9.5-9.04,13.8l-2.35-1.39c2.13-4.9,4.54-10.6,7.31-17.06s5.56-13.32,8.36-20.58c2.81-7.29,5.53-14.74,8.16-22.45,2.64-7.68,4.93-15.25,6.86-22.68,1.93-7.48,3.37-14.6,4.42-21.46,1.02-6.83,1.28-13.01.82-18.57-.28-3.71-.88-7.09-1.67-10.06-.82-2.98-2.1-5.5-3.77-7.51-1.7-2.07-3.86-3.57-6.46-4.56-2.61-.99-5.92-1.33-9.86-1.02-7.63.62-14.23,3.34-19.73,8.14-5.56,4.82-10.18,11.08-13.95,18.77-3.77,7.74-6.8,16.53-9.07,26.45-2.27,9.92-3.97,20.3-5.13,31.1-.88,8.28-1.5,16.58-1.84,24.94-.23-1.64-.65-3-1.3-4.11-.77-1.39-1.9-2.04-3.37-2.01-1.25,0-2.83.06-4.76.14-1.93.09-3.97.2-6.18.31-2.18.11-4.48.17-6.86.26-2.32.06-4.51.17-6.55.26-2.01.09-3.83.2-5.36.28-1.53.09-2.64.11-3.32.09,2.32-4.45,4.48-8.93,6.52-13.49,2.01-4.54,3.77-8.99,5.16-13.32,1.42-4.37,2.47-8.62,3.2-12.76.68-4.17.88-8.08.6-11.74-.34-4.34-1.16-8.48-2.49-12.36-1.3-3.94-3.03-7.31-5.1-10.15-2.04-2.83-4.45-5.07-7.23-6.66-2.72-1.59-5.7-2.24-8.84-1.98-4.93.4-9.44,3-13.55,7.8-4.11,4.85-7.77,11.06-10.94,18.71-3.2,7.68-5.95,16.33-8.22,26.02-2.27,9.69-4,19.7-5.19,29.91-.71.2-2.04.4-3.97.51-1.96.11-4.2.23-6.63.34-2.49.17-5.05.34-7.71.6-2.69.26-5.13.65-7.34,1.22-2.18.57-3.97,1.3-5.33,2.21-1.36.88-1.98,2.07-1.87,3.57.06.65.17,1.45.31,2.41.14.91.48,1.81.96,2.61.54.85,1.3,1.53,2.3,2.1.99.54,2.38.88,4.17.94,4.03.14,7.06.28,9.18.43s3.88.26,5.24.43c1.36.17,2.66.28,3.88.45,1.25.17,2.98.28,5.19.43-.23,5.07-.34,10.18-.31,15.28.06,3.09.14,6.07.28,8.93-.94-.85-1.87-1.7-2.83-2.55-4.99-4.42-10.23-8.25-15.87-11.54-5.61-3.23-11.54-5.73-17.83-7.46-6.26-1.73-12.9-2.32-19.84-1.76-8.14.65-15.34,2.78-21.63,6.32-6.29,3.57-11.48,8.16-15.56,13.78-4.08,5.64-7.03,12.13-8.9,19.47-1.84,7.29-2.41,15.08-1.76,23.3.26,3.17.71,6.32,1.33,9.41-.65.51-1.28,1.05-1.93,1.56-1.87,1.5-3.8,3-5.84,4.48-2.04,1.45-4,2.78-5.95,3.97-1.93,1.13-3.77,2.1-5.53,2.86-1.76.74-3.32,1.16-4.71,1.28-.6.03-1.28-.34-1.98-1.16-.74-.79-1.45-1.87-2.15-3.29-.71-1.42-1.33-3-1.9-4.82-.51-1.81-.88-3.66-1.05-5.61l-.11-1.56c.11-1.5.28-3.06.54-4.65.26-1.62.48-3.12.74-4.54.26-1.42.54-2.75.85-3.97.31-1.22.62-2.24.94-3,2.81-7,5.9-14.2,9.16-21.57,3.29-7.34,6.55-14.85,9.75-22.42,3.26-7.6,6.35-15.25,9.24-22.9,2.95-7.68,5.47-15.31,7.54-22.9,2.07-7.54,3.63-15.02,4.62-22.45.99-7.4,1.19-14.63.62-21.66-.23-3.12-.74-6.15-1.45-9.18-.74-2.98-1.79-5.58-3.15-7.91-1.33-2.27-3.12-4.11-5.3-5.39-2.18-1.3-4.85-1.81-7.99-1.56-4.62.37-9.04,2.13-13.29,5.33-4.22,3.2-8.25,7.46-11.93,12.73-3.69,5.3-7.14,11.48-10.37,18.43-3.17,6.97-6.09,14.46-8.67,22.39-2.55,7.97-4.79,16.24-6.63,24.77-1.84,8.59-3.34,17.09-4.51,25.54-1.19,8.39-1.93,16.58-2.27,24.46-.31,7.88-.23,15.14.31,21.8.43,5.56,1.16,10.94,2.18,16.16-3.74,2.92-7.43,5.92-11.08,8.99-5.33,4.54-10.69,9.04-16.07,13.52-5.36,4.51-10.94,8.56-16.78,12.27s-11.99,6.83-18.57,9.35c-6.58,2.55-13.75,4.08-21.51,4.71-6.24.48-11.91.03-17.06-1.45-5.16-1.45-9.58-3.94-13.35-7.46-3.77-3.54-6.8-8.11-9.13-13.66-2.35-5.56-3.83-12.22-4.45-19.9-.43-5.33-.37-11.28.17-17.74.57-6.46,1.53-13.21,2.98-20.13,1.45-6.97,3.29-13.97,5.56-21.03,2.27-7.06,4.93-13.89,7.91-20.49,3-6.6,6.38-12.81,10.09-18.68,3.69-5.84,7.71-10.97,11.99-15.39,4.31-4.37,8.84-7.97,13.69-10.71,4.85-2.75,9.89-4.37,15.19-4.79,4.45-.34,8.31.03,11.54,1.16,3.23,1.16,5.95,2.78,8.08,4.9,2.18,2.13,3.83,4.65,4.96,7.6,1.13,2.95,1.84,6.12,2.1,9.44.51,6.35-.26,12.27-2.27,17.74-2.04,5.47-4.85,10.23-8.36,14.37-3.54,4.14-7.63,7.46-12.27,9.89-4.62,2.49-9.27,3.91-13.97,4.28-1.76.14-3.23.14-4.39-.03-1.16-.17-2.15-.37-3-.6-.79-.23-1.59-.43-2.24-.65-.68-.23-1.45-.28-2.35-.2-1.47.11-2.61.6-3.37,1.39-.79.82-1.36,1.84-1.67,3.06-.37,1.28-.57,2.58-.6,4.05-.03,1.5,0,2.89.11,4.22.09.94.17,1.76.28,2.61.09.79.14,1.53.2,2.1.26,3.43,2.13,5.95,5.58,7.51,3.46,1.59,8.5,2.1,15.17,1.56,5.07-.43,10.06-1.81,14.97-4.14,4.9-2.35,9.55-5.39,13.97-9.1s8.5-7.99,12.19-12.87c3.71-4.9,6.86-10.06,9.44-15.48,2.58-5.44,4.51-11.08,5.78-16.84,1.28-5.78,1.7-11.45,1.25-16.95-.68-8.22-2.64-15.28-5.87-21.09-3.23-5.84-7.17-10.54-11.85-14.14-4.62-3.63-9.75-6.15-15.31-7.63-5.58-1.45-11-1.98-16.3-1.56-8.14.68-15.87,2.64-23.22,5.92-7.34,3.32-14.2,7.6-20.66,12.9-6.43,5.3-12.42,11.4-17.91,18.23-5.5,6.86-10.46,14.29-14.88,22.14s-8.28,16.02-11.59,24.49c-3.29,8.48-5.98,16.92-8.11,25.29-2.07,8.42-3.54,16.61-4.37,24.6-.82,7.99-.99,15.42-.43,22.31.82,10.09,3.15,19.56,6.92,28.46ZM731.3,166.7l-.28-.26-.03.03,19.13-22.82c.45,1.16.99,2.58,1.62,4.22.62,1.64,1.19,3.4,1.76,5.24.6,1.87,1.08,3.83,1.47,5.92.43,2.07.74,4.14.91,6.12.17,2.32.14,4.56-.14,6.75-.28,2.13-.88,4.05-1.84,5.75-1.02,1.7-2.35,3.12-4.17,4.22-1.79,1.13-4.11,1.79-6.97,2.01-2.35.17-4.48-.2-6.41-1.19-1.93-.96-3.63-2.07-5.13-3.29-1.5-1.25-2.83-2.38-3.97-3.4-1.02-.91-1.96-1.42-2.78-1.45,2.35-2.52,4.62-5.16,6.83-7.88ZM647.76,143.4c.28-2.49.79-4.99,1.5-7.51.71-2.49,1.76-4.76,3.12-6.8,1.33-1.98,3.09-3.71,5.22-5.07,2.15-1.36,4.79-2.18,7.94-2.44,1.76-.14,3.34.82,4.73,2.89,1.36,2.1,2.18,4.79,2.47,8.16.17,2.35-.51,4.93-2.15,7.6-1.62,2.72-3.69,5.24-6.18,7.63-2.49,2.35-5.24,4.39-8.25,6.01-3,1.62-5.84,2.55-8.48,2.75-.11-1.64-.2-3.66-.28-5.95-.03-2.32.11-4.73.37-7.26ZM533.83,112.42c.17-3.83.45-7.88.82-12.19.34-4.25.77-8.59,1.25-13.07.51-4.42,1.11-8.9,1.84-13.38.71-4.48,1.53-8.82,2.44-13.04,4.08-12.5,7.74-22.05,10.94-28.71,3.23-6.66,5.78-10.06,7.71-10.2,1.45-.11,2.44,2.64,2.89,8.31.31,3.74-.2,9.61-1.53,17.6-1.33,8.02-3.66,17.89-7.06,29.68h.03c-1.08,3.46-2.41,7.68-4.05,12.67-1.64,4.99-3.37,10.26-5.19,15.85-1.84,5.61-3.69,11.28-5.61,17.01-1.9,5.67-3.66,10.97-5.27,15.85,0-8.59.23-17.35.79-26.36ZM504.84,120.1c1.76-.14,3.32-1.08,4.65-2.83.58-.8,1.04-1.67,1.33-2.64,0-.06,0-.13,0-.19h.06c-.02.07-.04.13-.06.19-.03.87-.05,1.74-.08,2.61-.2,11.03-.2,21.46,0,31.38.14,8.08.43,15.53.82,22.39-.91.99-1.84,1.98-2.81,2.98-2.52,2.55-5.19,5.02-7.99,7.37-2.78,2.38-5.64,4.56-8.53,6.6-2.89,2.04-5.67,3.83-8.33,5.36-2.64,1.53-5.07,2.78-7.34,3.69-2.21.96-4.11,1.5-5.64,1.62-2.52.2-4.79-.06-6.89-.65-2.04-.62-3.88-1.76-5.41-3.4-1.53-1.64-2.78-3.83-3.74-6.52-.94-2.69-1.59-6.07-1.9-10.09-.11-1.56-.26-3.29-.37-5.16-.11-1.87-.2-3.83-.28-5.87-.09-1.98-.17-4.05-.26-6.09-.09-2.07-.17-4.05-.28-6.01-.14-4.51-.23-9.07-.31-13.72,1.64-2.47,3.43-5.24,5.39-8.28,1.93-3.06,3.83-6.18,5.73-9.33l42.26-3.4ZM451.23,84.9c1.08-6.55,2.3-12.59,3.66-18.09,1.33-5.47,2.86-10.01,4.54-13.61,1.67-3.6,3.43-5.5,5.36-5.64,1.39-.11,2.52.11,3.32.65.82.51,1.45,1.22,1.9,2.07.4.88.74,1.81.94,2.81s.31,1.9.37,2.75v.06c.2,2.38-.2,5.47-1.13,9.33-.94,3.83-2.21,7.97-3.77,12.42-1.56,4.45-3.34,8.96-5.36,13.63-2.04,4.62-4,8.93-5.87,12.9-1.19-.03-2.35-.09-3.46-.11-1.11-.03-2.24-.06-3.34-.11.85-6.15,1.81-12.5,2.86-19.05ZM347,174.9c.79-5.02,2.04-9.67,3.77-13.89,1.7-4.25,3.83-7.8,6.32-10.6,2.49-2.83,5.24-4.37,8.28-4.62,2.27-.17,4.25.31,5.98,1.45,1.73,1.13,3.17,2.75,4.37,4.85,1.22,2.04,2.18,4.56,2.95,7.46.74,2.89,1.25,6.09,1.53,9.52.34,4.34.2,8.93-.48,13.75-.71,4.85-1.76,9.27-3.2,13.35-1.47,4.03-3.26,7.46-5.39,10.2-2.15,2.81-4.48,4.25-6.94,4.45-2.89.23-5.39-.2-7.54-1.25-2.13-1.05-3.91-2.58-5.36-4.54-1.39-1.93-2.49-4.25-3.32-7-.79-2.69-1.33-5.61-1.59-8.76-.37-4.56-.17-9.35.62-14.37ZM286.23,126.34c.43-7.68,1.22-15.19,2.41-22.48,1.13-7.34,2.64-14.23,4.34-20.75,1.76-6.55,3.63-12.3,5.73-17.29,2.04-4.99,4.22-8.99,6.43-11.96,2.27-3,4.45-4.59,6.55-4.76.62-.06,1.02.68,1.25,2.21.23,1.5.43,3.34.6,5.53-.09,6.86-1.02,14.32-2.83,22.39-1.79,8.05-4,16.16-6.66,24.35-2.66,8.19-5.53,16.19-8.65,23.95-3.12,7.77-6.07,14.77-8.9,21v.03c-.6-7.14-.65-14.57-.26-22.22Z"/>
    <path class="cls-1" d="M1001.69,131.02c.82,2.89,1.7,5.78,2.55,8.67,1.28,4.31,2.52,8.59,3.74,12.93,1.33,4.73,2.66,9.44,3.86,14.23.43,1.7.85,3.43,1.19,5.16.06.34.14.68.2,1.02-.48.37-.96.71-1.45,1.05-1.19.82-2.38,1.56-3.6,2.35-2.81,1.79-7.31,4.51-8.9,7.48-1.39,2.64-1.56,5.1-1.98,7.99-.31,2.24-.79,3.74-2.58,5.19-2.18,1.76-5.13,1.81-7.48.28-1.56-.99-2.64-2.58-3.03-4.39-.57-2.72.4-5.53,1.76-7.85l.06-.09c.03-.06.06-.11.09-.17l1.47-3.37c.28-.65.11-1.42-.43-1.87l-1.11-.94c-1.33-1.13-2.66-2.21-4.54-1.87-1.96.34-2.64,1.87-3.49,3.43-2.66,4.85-3.8,9.61-2.38,15.14,1.02,3.94,3.83,7.37,7.17,9.55,3.54,2.32,7.85,3.37,11.99,2.32,4.34-1.11,7.68-3.57,9.58-7.74,1.28-2.86,1.56-5.7,2.18-8.7.14-.68.43-2.04.85-2.58.23-.28.62-.57.91-.77.85-.57,1.73-1.08,2.61-1.62,2.49-1.53,4.93-3.17,7.31-4.9l.06-.06c.57.45,1.13.91,1.73,1.39,2.07,1.7,4.14,3.4,6.18,5.13,3.17,2.69,6.32,5.39,9.5,8.08l49.49,41.75c3.49,2.95,7.2,7.09,12.02,7.4,7.09.48,10.15-6.69,7.34-12.61-1.13-2.35-2.64-4.59-4.08-6.77-1.22-1.84-2.49-3.66-3.69-5.53l-46.09-71.6c-10.26-15.96-20.66-31.8-30.98-47.74-5.1-7.88-10.4-15.65-15.17-23.75-1.87-3.17-4.88-6.46-8.7-6.89-2.58-.28-4.85.82-6.55,2.75-1.33,1.47-2.1,3.23-2.3,5.22-.31,2.95.68,5.7,1.45,8.5,4.17,15,8.99,29.79,13.24,44.79ZM997.64,82.29c2.38,4.39,5.13,8.56,7.91,12.7,2.32,3.46,4.68,6.86,6.92,10.37l81.98,126.99c.26.4.96,1.39,1.5,2.27-.11-.09-.26-.17-.34-.26-1.5-1.11-3-2.3-4.45-3.46-4.14-3.34-8.22-6.75-12.27-10.2-3.83-3.23-7.63-6.49-11.42-9.75-2.38-2.04-4.73-4.11-7.11-6.12-6.12-5.19-12.3-10.26-18.45-15.36-3.77-3.15-7.54-6.29-11.28-9.47-2.75-2.35-5.5-4.71-8.16-7.14v-.03c-.09-.2-.14-.4-.2-.57-.26-.74-.48-1.5-.71-2.27-.62-2.13-1.16-4.28-1.73-6.43-.54-2.1-1.05-4.17-1.56-6.26-.34-1.39-.68-2.81-1.05-4.2-2.04-7.14-3.91-14.34-6.07-21.46-.99-3.32-2.07-6.63-3.09-9.98-1.73-5.56-3.43-11.08-5.07-16.64-1.73-5.75-3.43-11.54-4.99-17.32-.54-2.04-1.08-4.11-1.53-6.18-.09-.4-.26-1.11-.37-1.7.62.79,1.19,1.76,1.56,2.47Z"/>
    <path class="cls-1" d="M320.75,347.16c-6.01-2.04-12.76,1.16-18.45,2.95l-83.06,26.19c-5.33,1.67-10.63,3.43-15.96,5.1-3.46,1.11-6.89,2.18-10.35,3.2-1.07.31-2.18.62-3.25.93,0,.01.01.02.02.03l-.03-.03s0,0,0,0c-2.18-3.53-4.44-6.98-6.87-10.29-.85-1.13-1.73-2.24-2.49-3.43-.31-.48-.68-1.05-.82-1.62-.28-1.05.06-2.86.23-3.94.71-4.08,1.79-7.77,1.62-11.96-.26-6.07-3.15-10.77-7.88-14.34-4.51-3.37-10.32-4.31-15.76-3.32-5.16.96-10.29,3.68-13.46,7.99-4.48,6.04-5.41,12.47-4.54,19.81.26,2.18.31,4.39,2.38,5.73,1.98,1.28,4.11.62,6.15-.03l1.87-.6c.68-.2,1.13-.82,1.11-1.56l-.17-5.02c0-.09-.03-.14-.03-.2l-.03-.14c-.57-3.77-.37-7.94,1.81-11.17,1.5-2.21,3.77-3.69,6.38-4.14,3.94-.71,7.82,1.02,9.81,4.59,1.59,2.89,1.45,5.16.68,8.28-.91,3.77-1.96,6.92-1.53,10.89.48,4.42,4.76,10.18,7.31,13.8,1.13,1.59,2.27,3.2,3.34,4.85.54.77,1.05,1.56,1.5,2.38-.31.48-.65.99-.96,1.47-1.3,2.01-2.69,3.94-4.11,5.87-3.91,5.33-7.97,10.57-12.02,15.79-3.71,4.73-7.46,9.47-11.2,14.2-2.52,3.17-5.05,6.35-7.54,9.55-12.87,16.55-26.36,32.54-39.12,49.15-2.3,3-4.9,5.95-5.98,9.69-.74,2.49-.65,4.96.23,7.4,1.11,3.15,3.26,5.58,6.46,6.55,4.82,1.42,10.09-1.08,13.89-3.97,10.06-7.63,20.61-14.57,30.98-21.77,20.92-14.51,41.92-28.91,62.82-43.48l93.77-65.42c2.47-1.7,4.96-3.32,7.43-4.99,2.86-1.93,5.87-3.91,8.45-6.26,6.24-5.67,6.09-15.73-2.64-18.74ZM311.54,361.08l-166.62,115.88c-4.59,3.2-9.27,6.24-13.89,9.35-5.56,3.71-11.08,7.48-16.27,11.71-1.19.96-3.06,2.38-4.59,2.92.03-.14.03-.28.06-.4.26-.71,1.42-2.35,1.84-2.98,1.62-2.35,3.32-4.65,5.05-6.94,4.88-6.46,9.89-12.78,14.97-19.11,4.88-6.09,9.81-12.16,14.74-18.2,2.95-3.63,5.95-7.2,8.87-10.86,6.26-7.77,12.25-15.79,18.4-23.67,1.19-1.53,2.3-3.12,3.43-4.68,1.7-2.35,3.4-4.71,5.1-7.03,1.79-2.41,3.57-4.82,5.41-7.17.65-.85,1.33-1.7,2.04-2.49.2-.23.43-.48.65-.71,4.59-1.7,9.27-3.2,13.95-4.71,6.29-2.01,12.59-3.97,18.91-5.92,10.29-3.17,20.61-6.26,30.87-9.52,4.03-1.28,8.02-2.61,12.02-3.91,6.38-2.1,12.81-4.17,19.22-6.21,6.83-2.15,13.66-4.31,20.55-6.29,2.47-.68,4.9-1.39,7.37-1.98.72-.17,1.79-.46,2.63-.58.01-.01.03-.03.04-.04l.03.03s-.04,0-.07.01c-.94,1.13-3.77,2.86-4.7,3.5Z"/>
    <path class="cls-1" d="M911.1,264.92c-1.76-1.08-3.8-1.84-6.15-2.27-2.3-.37-4.76-.48-7.31-.28-4.08.34-7.48,1.25-10.12,2.78s-4.73,3.32-6.24,5.36c-1.47,2.04-2.52,4.17-3.06,6.41-.57,2.24-.77,4.17-.62,5.9v-.06c.4,5.16,2.3,9.16,5.61,12.02,3.32,2.86,8.22,4.03,14.68,3.51,3.71-.28,6.89-1.16,9.47-2.52,2.58-1.36,4.68-3.06,6.29-5.07,1.62-1.98,2.72-4.22,3.34-6.69.6-2.44.79-4.93.6-7.48-.23-2.75-.91-5.13-2.07-7.03-1.16-1.93-2.64-3.49-4.42-4.56Z"/>
    <path class="cls-1" d="M102.37,378.34l.06-.03c1.5,2.55,3.09,5.05,4.82,7.46.6.85,1.22,1.67,1.79,2.55.2.31.45.71.54,1.08.17.68-.09,2.04-.23,2.72-.57,3-1.42,5.73-1.33,8.87.11,4.62,2.27,8.25,5.81,11,3.37,2.64,7.77,3.4,11.91,2.72,3.91-.65,7.8-2.66,10.26-5.9,3.43-4.48,4.2-9.33,3.63-14.85-.17-1.76-.2-3.46-1.87-4.56-1.59-1.08-3.23-.62-4.88-.11l-1.39.43c-.68.23-1.11.82-1.11,1.56l.06,3.69c.03.09.03.14.03.2v.09c.37,2.66.2,5.64-1.39,7.91-1.05,1.5-2.66,2.52-4.48,2.81-2.75.45-5.44-.79-6.77-3.29-1.08-2.04-.94-3.63-.37-5.81.74-2.83,1.56-5.16,1.28-8.16-.31-3.37-3.4-7.68-5.3-10.46-.82-1.19-1.64-2.38-2.41-3.6-.31-.48-.62-1.02-.94-1.53.17-.28.37-.57.57-.85.99-1.45,2.04-2.86,3.09-4.25,2.92-3.91,5.95-7.71,9.01-11.51,2.78-3.46,5.61-6.92,8.42-10.35,1.9-2.3,3.8-4.62,5.67-6.94,9.67-12.05,19.79-23.7,29.4-35.8,1.79-2.27,3.74-4.39,4.59-7.23.6-1.9.57-3.83-.09-5.73-.82-2.44-2.49-4.39-4.96-5.16-3.69-1.16-7.71.62-10.66,2.81-7.48,5.53-15.36,10.52-23.07,15.7-15.59,10.49-31.27,20.83-46.83,31.35l-69.9,47.17c-1.81,1.25-3.69,2.41-5.53,3.6-2.15,1.42-4.39,2.86-6.35,4.56-4.9,4.31-4.82,12.16,1.87,14.57,4.54,1.64,9.55-.65,13.89-1.96l61.57-18.37c3.97-1.16,7.91-2.38,11.85-3.57,2.55-.77,5.1-1.53,7.65-2.24.68-.2,1.39-.37,2.1-.57ZM91.43,372.5c-4.65,1.42-9.33,2.78-14,4.14-7.63,2.21-15.28,4.37-22.88,6.66-2.98.91-5.92,1.84-8.9,2.75-4.76,1.45-9.5,2.92-14.26,4.34-5.07,1.5-10.12,3-15.22,4.39-1.81.51-3.63.96-5.44,1.39-.14,0-.28.06-.43.09.85-.6,1.87-1.22,2.27-1.47l124.21-83.54c3.4-2.3,6.89-4.48,10.35-6.72,4.14-2.66,8.28-5.39,12.16-8.45.6-.48,1.5-1.13,2.38-1.62-.34.51-.77,1.08-.99,1.42-1.19,1.73-2.47,3.37-3.77,5.05-3.66,4.71-7.46,9.33-11.25,13.92-3.68,4.42-7.37,8.84-11.08,13.24-2.21,2.64-4.45,5.24-6.66,7.91-4.71,5.67-9.21,11.51-13.83,17.26-.88,1.13-1.73,2.3-2.58,3.43-1.28,1.7-2.55,3.43-3.83,5.13-1.33,1.76-2.66,3.51-4.05,5.22-.51.6-.99,1.19-1.53,1.79-.11.11-.26.28-.4.43h-.03c-3.37,1.16-6.8,2.21-10.23,3.26Z"/>
  </g>
</svg>