<?xml version="1.0" encoding="UTF-8"?>
<svg id="Capa_2" data-name="Capa 2" xmlns="http://www.w3.org/2000/svg" viewBox="0 0 171.26 130.03">
  <defs>
    <style>
      .cls-1 {
        fill: #098387;
        stroke-width: 0px;
      }
    </style>
  </defs>
  <g id="Capa_1-2" data-name="Capa 1">
    <path class="cls-1" d="M102.37,93.43l.06-.03c1.5,2.55,3.09,5.05,4.82,7.46.6.85,1.22,1.67,1.79,2.55.2.31.45.71.54,1.08.17.68-.09,2.04-.23,2.72-.57,3-1.42,5.73-1.33,8.87.11,4.62,2.27,8.25,5.81,11,3.37,2.64,7.77,3.4,11.91,2.72,3.91-.65,7.8-2.66,10.26-5.9,3.43-4.48,4.2-9.33,3.63-14.85-.17-1.76-.2-3.46-1.87-4.56-1.59-1.08-3.23-.62-4.88-.11l-1.39.43c-.68.23-1.11.82-1.11,1.56l.06,3.69c.03.09.03.14.03.2v.09c.37,2.66.2,5.64-1.39,7.91-1.05,1.5-2.66,2.52-4.48,2.81-2.75.45-5.44-.79-6.77-3.29-1.08-2.04-.94-3.63-.37-5.81.74-2.83,1.56-5.16,1.28-8.16-.31-3.37-3.4-7.68-5.3-10.46-.82-1.19-1.64-2.38-2.41-3.6-.31-.48-.62-1.02-.94-1.53.17-.28.37-.57.57-.85.99-1.45,2.04-2.86,3.09-4.25,2.92-3.91,5.95-7.71,9.01-11.51,2.78-3.46,5.61-6.92,8.42-10.35,1.9-2.3,3.8-4.62,5.67-6.94,9.67-12.05,19.79-23.7,29.4-35.8,1.79-2.27,3.74-4.39,4.59-7.23.6-1.9.57-3.83-.09-5.73-.82-2.44-2.49-4.39-4.96-5.16-3.69-1.16-7.71.62-10.66,2.81-7.48,5.53-15.36,10.52-23.07,15.7-15.59,10.49-31.27,20.83-46.83,31.35L15.32,97.4c-1.81,1.25-3.69,2.41-5.53,3.6-2.15,1.42-4.39,2.86-6.35,4.56-4.9,4.31-4.82,12.16,1.87,14.57,4.54,1.64,9.55-.65,13.89-1.96l61.57-18.37c3.97-1.16,7.91-2.38,11.85-3.57,2.55-.77,5.1-1.53,7.65-2.24.68-.2,1.39-.37,2.1-.57ZM91.43,87.59c-4.65,1.42-9.33,2.78-14,4.14-7.63,2.21-15.28,4.37-22.88,6.66-2.98.91-5.92,1.84-8.9,2.75-4.76,1.45-9.5,2.92-14.26,4.34-5.07,1.5-10.12,3-15.22,4.39-1.81.51-3.63.96-5.44,1.39-.14,0-.28.06-.43.09.85-.6,1.87-1.22,2.27-1.47L136.78,26.33c3.4-2.3,6.89-4.48,10.35-6.72,4.14-2.66,8.28-5.39,12.16-8.45.6-.48,1.5-1.13,2.38-1.62-.34.51-.77,1.08-.99,1.42-1.19,1.73-2.47,3.37-3.77,5.05-3.66,4.71-7.46,9.33-11.25,13.92-3.68,4.42-7.37,8.84-11.08,13.24-2.21,2.64-4.45,5.24-6.66,7.91-4.71,5.67-9.21,11.51-13.83,17.26-.88,1.13-1.73,2.3-2.58,3.43-1.28,1.7-2.55,3.43-3.83,5.13-1.33,1.76-2.66,3.51-4.05,5.22-.51.6-.99,1.19-1.53,1.79-.11.11-.26.28-.4.43h-.03c-3.37,1.16-6.8,2.21-10.23,3.26Z"/>
  </g>
</svg>